<?xml version="1.0" encoding="utf-8"?>
<!-- Generator: Adobe Illustrator 22.0.1, SVG Export Plug-In . SVG Version: 6.00 Build 0)  -->
<svg version="1.1" id="Layer_1" xmlns="http://www.w3.org/2000/svg" xmlns:xlink="http://www.w3.org/1999/xlink" x="0px" y="0px"
	 viewBox="0 0 92 64" style="enable-background:new 0 0 92 64;" xml:space="preserve">
<style type="text/css">
	.st0{fill:#F5F5F5;}
	.st1{fill:#E86B05;}
</style>
<title>close-nav-button</title>
<g id="Layer_2_1_">
	<g id="Navigation">
		<path class="st0" d="M6.9,27.5c0,0.1,0,0.2-0.1,0.2c-0.1,0.1-0.2,0.1-0.3,0.1c-0.1,0-0.1,0-0.2-0.1c-0.6-0.4-1.4-0.6-2.1-0.6
			c-0.6,0-1.2,0.2-1.8,0.5c-0.5,0.3-0.9,0.7-1.2,1.3c-0.6,1.2-0.6,2.6,0,3.8c0.3,0.5,0.7,1,1.2,1.3c0.5,0.3,1.1,0.5,1.7,0.5
			c0.7,0,1.5-0.2,2.1-0.6c0.1,0,0.1-0.1,0.2-0.1c0.1,0,0.2,0.1,0.3,0.2c0.1,0.1,0.1,0.1,0.1,0.2c0,0.1-0.1,0.2-0.2,0.3
			c-0.4,0.2-0.8,0.4-1.2,0.5C5.1,35,4.7,35,4.2,35.1c-0.7,0-1.5-0.2-2.1-0.5c-0.6-0.4-1.2-0.9-1.5-1.5c-0.8-1.4-0.8-3.1,0-4.5
			c0.4-0.6,0.9-1.2,1.5-1.5c0.6-0.4,1.4-0.6,2.1-0.5c0.4,0,0.9,0.1,1.3,0.2c0.4,0.1,0.8,0.3,1.2,0.5C6.8,27.2,6.9,27.3,6.9,27.5z"/>
		<path class="st0" d="M8.6,34.8c-0.1,0.1-0.4,0.1-0.5,0C8,34.8,8,34.7,8,34.6v-8.2c0-0.1,0-0.2,0.1-0.3c0.1-0.1,0.4-0.1,0.5,0
			c0.1,0.1,0.1,0.2,0.1,0.3v8.2C8.7,34.7,8.7,34.8,8.6,34.8z"/>
		<path class="st0" d="M15.5,33.5c-0.3,0.5-0.6,0.9-1.1,1.2c-1,0.5-2.1,0.5-3.1,0c-0.5-0.3-0.8-0.7-1.1-1.2c-0.5-1-0.5-2.2,0-3.3
			c0.2-0.5,0.6-0.9,1.1-1.1c1-0.6,2.1-0.6,3.1,0c0.5,0.3,0.8,0.7,1.1,1.1C16,31.3,16,32.5,15.5,33.5z M14.9,30.6
			c-0.2-0.4-0.5-0.7-0.8-0.9c-0.4-0.2-0.8-0.3-1.2-0.3c-0.4,0-0.8,0.1-1.2,0.3c-0.4,0.2-0.6,0.5-0.8,0.9c-0.2,0.4-0.3,0.8-0.3,1.3
			c0,0.4,0.1,0.9,0.3,1.3c0.2,0.4,0.5,0.7,0.8,0.9c0.4,0.2,0.8,0.3,1.2,0.3c0.4,0,0.8-0.1,1.2-0.3c0.4-0.2,0.6-0.5,0.8-0.9
			c0.2-0.4,0.3-0.8,0.3-1.3C15.2,31.4,15.1,31,14.9,30.6z"/>
		<path class="st0" d="M16.6,33.7c0-0.1,0.1-0.2,0.2-0.2c0.1,0,0.1-0.1,0.2-0.1c0.1,0,0.2,0,0.3,0.1c0.4,0.6,1.1,1,1.9,0.9
			c0.4,0,0.7-0.1,1-0.3c0.3-0.2,0.4-0.5,0.4-0.8c0-0.3-0.1-0.6-0.4-0.8c-0.3-0.2-0.7-0.3-1.1-0.4c-0.6-0.1-1.1-0.3-1.6-0.7
			c-0.4-0.3-0.6-0.7-0.6-1.2c0-0.3,0.1-0.6,0.3-0.9c0.2-0.3,0.4-0.5,0.8-0.6c0.3-0.1,0.7-0.2,1-0.2c0.3,0,0.7,0.1,1,0.2
			c0.3,0.1,0.7,0.3,0.9,0.6c0.1,0.1,0.1,0.2,0.1,0.2c0,0.1,0,0.2,0,0.3c-0.1,0-0.1,0.1-0.2,0.1c-0.1,0-0.2,0-0.2-0.1
			c-0.2-0.2-0.4-0.4-0.7-0.5c-0.3-0.1-0.6-0.2-0.9-0.2c-0.4,0-0.7,0.1-1,0.3c-0.3,0.2-0.4,0.5-0.4,0.8c0,0.3,0.2,0.6,0.4,0.7
			c0.4,0.2,0.8,0.4,1.2,0.5c0.3,0.1,0.7,0.2,1,0.4c0.3,0.1,0.5,0.3,0.7,0.5c0.2,0.3,0.3,0.6,0.3,0.9c0,0.5-0.2,1-0.6,1.2
			c-0.5,0.3-1,0.5-1.5,0.5c-0.9,0-1.8-0.4-2.3-1.1C16.7,33.9,16.6,33.8,16.6,33.7z"/>
		<path class="st0" d="M27.5,31.8c-0.1,0.1-0.2,0.1-0.2,0.1h-4.5c0,0.4,0.1,0.9,0.3,1.3c0.2,0.4,0.5,0.7,0.8,0.9
			c0.4,0.2,0.8,0.3,1.3,0.3c0.3,0,0.7-0.1,1-0.2c0.3-0.1,0.5-0.4,0.7-0.6c0.1-0.1,0.2-0.1,0.2-0.1c0.1,0,0.2,0,0.2,0.1
			c0.1,0.1,0.1,0.1,0.1,0.2c0,0.1,0,0.2-0.1,0.2c-0.3,0.3-0.6,0.6-1,0.8c-0.4,0.2-0.8,0.3-1.2,0.3c-0.6,0-1.1-0.1-1.6-0.4
			c-0.5-0.3-0.8-0.6-1.1-1.1C22.1,33,22,32.5,22,31.9c0-0.6,0.1-1.2,0.4-1.7c0.2-0.5,0.6-0.9,1-1.1c0.4-0.3,0.9-0.4,1.4-0.4
			c0.5,0,0.9,0.1,1.4,0.3c0.4,0.2,0.8,0.6,1,1c0.3,0.5,0.4,1,0.4,1.5C27.6,31.6,27.5,31.7,27.5,31.8z M23.5,29.8
			c-0.4,0.4-0.7,0.8-0.8,1.4h4.1v-0.1c0-0.3-0.2-0.7-0.4-0.9c-0.2-0.3-0.5-0.5-0.8-0.6c-0.3-0.1-0.6-0.2-0.9-0.2
			C24.3,29.4,23.9,29.5,23.5,29.8L23.5,29.8z"/>
		<polygon class="st1" points="91.6,48 91.6,16 64.6,0 37.6,16 37.6,48 64.6,64 		"/>
		<path class="st0" d="M73.6,41.8c-0.1,0-0.3-0.1-0.3-0.2l-18-18c-0.2-0.2-0.2-0.5,0-0.7s0.5-0.2,0.7,0l18,18c0.2,0.2,0.2,0.5,0,0.7
			C73.9,41.7,73.8,41.7,73.6,41.8z"/>
		<path class="st0" d="M55.6,41.8c-0.1,0-0.3-0.1-0.3-0.2c-0.2-0.2-0.2-0.5,0-0.7c0,0,0,0,0,0l18-18c0.2-0.2,0.5-0.2,0.7,0
			s0.2,0.5,0,0.7l-18,18C55.9,41.7,55.8,41.7,55.6,41.8z"/>
	</g>
</g>
</svg>
