<svg xmlns="http://www.w3.org/2000/svg" viewBox="0 0 231.15 442.73"><defs><style>.cls-1{fill:#f5f5f5;}.cls-2{fill:#e86b05;}.cls-3{fill:#575756;}.cls-4{fill:#ddd;}.cls-5{fill:#919191;}.cls-6{fill:#afafac;}</style></defs><title>Asset 14</title><g id="Layer_2" data-name="Layer 2"><g id="Navigation"><polygon class="cls-1" points="216.81 272.19 216.81 172.22 132.46 122.24 48.11 172.22 48.11 272.19 132.46 322.17 216.81 272.19"/><path class="cls-2" d="M132.46,324.14l-86-51V171.26l86-51,86,51V273.15ZM49.8,271.23l82.66,49,82.66-49V173.18l-82.66-49-82.66,49Z"/><path class="cls-3" d="M154.9,226.1c-.63-.12-.8.38-.93.84s-.25,1.09-.37,1.63q-1.11,5.09-2.21,10.19l-.56,0c-.84-3.71-1.67-7.41-2.53-11.11-.17-.74-.21-1.66-1.33-1.69s-1.28.93-1.47,1.78c-.27,1.24-.55,2.47-.82,3.72-.65,3-1.3,6.05-1.91,9.09-.1.49-.35,1.22.42,1.39s.86-.5,1-1,.27-1.25.4-1.87c.71-3.27,1.41-6.55,2.15-10a1.76,1.76,0,0,1,.79,1.45q1.17,5.1,2.33,10.21c.17.73.37,1.39,1.31,1.43s1.15-.72,1.3-1.4q1.49-6.75,2.9-13.51C155.44,226.79,155.58,226.23,154.9,226.1Z"/><path class="cls-3" d="M142.53,226.12c-.79-.19-.87.55-1,1-1,4.56-2,9.13-3,13.79,0,.36-.23,1,.46,1.06.94.13,1-.73,1.07-1.28,1-4.41,1.9-8.82,2.82-13.24C143,227,143.35,226.32,142.53,226.12Z"/><path class="cls-3" d="M112.54,225.91c1-.1,2.4.46,2.77-1.33,1.21-5.9,2.49-11.78,3.73-17.67.09-.44.34-.89-.21-1.26-1.42-.93-4.33.14-4.68,1.79-1.17,5.42-2.24,10.86-3.49,16.26C110.24,225.52,110.6,226.25,112.54,225.91Z"/><path class="cls-3" d="M106.67,215.85a23.19,23.19,0,0,0,1.9-1.33c1.64-1.43,2.59-4.73,1.87-6.55-.91-2.3-2.93-2.41-5-2.44-1.74,0-3.5.09-5.24,0-1.57-.11-2.21.48-2.52,2-1,5.37-2.25,10.71-3.33,16.08-.16.76-1.12,2.14.55,2.19,1.33.05,3.33,1.18,3.94-1.24a56.67,56.67,0,0,0,1.22-5.58c.21-1.42,1-1.63,2.15-1.51s1.52,1,1.39,2.05-.39,2.34-.56,3.52c-.41,2.85-.35,2.82,2.59,2.91,1.61,0,2.25-.34,2.16-2.07a17.72,17.72,0,0,1,.58-4C108.71,218.21,108.64,216.69,106.67,215.85Zm-4.33-1.76c-.76-.06-1.38-.34-1-1.12.76-1.38-.54-4.05,2.42-4.05,1.34,0,2,.81,1.83,2.18A3.09,3.09,0,0,1,102.34,214.09Z"/><path class="cls-3" d="M90.4,205.32a8,8,0,0,0-9.62,5.08,33.49,33.49,0,0,0-2.21,9.83c0,2.42.12,4.38,2.33,5.42,3.59,1.69,8.54.26,10.4-3.27a27.2,27.2,0,0,0,2.92-12.65C94.24,207.13,92.94,205.84,90.4,205.32Zm-1.1,6a50,50,0,0,1-1.85,8.81,7,7,0,0,1-.43,1.1c-.49,1.07-1.18,2-2.5,1.73s-1.1-1.52-1.12-2.73a51,51,0,0,1,2.19-9.74c.44-1.23,1.14-2.46,2.74-2C89.76,208.92,89.42,210.27,89.3,211.33Z"/><path class="cls-3" d="M78.14,210.13a7.53,7.53,0,0,0,1.25-2.78c.32-1.31.17-1.89-1.36-1.85-2.86.09-5.72.1-8.58,0-2.14-.07-1.92,1.59-2.06,2.78-.2,1.7,1.26,1,2,1.07,1.14.12,2.3,0,3.86,0-3.4,5.33-7.57,9.51-10.26,14.71V226c3.65,0,7.3-.09,11-.08,2.14,0,1.78-1.69,2-2.88.21-1.55-1.13-1-1.85-1-1.39-.1-2.8,0-4.23,0A3.64,3.64,0,0,1,71,219.69Q74.55,214.89,78.14,210.13Z"/><path class="cls-3" d="M187.73,225.64a5.59,5.59,0,0,0-5.75,3,20.78,20.78,0,0,0-2.51,8.86c.1,2,.35,3.79,2.26,4.59a4.86,4.86,0,0,0,5.3-1.06,5.41,5.41,0,0,0,1.32-1.65c.41-.79,1.48-2,.64-2.46-1.21-.73-1.2,1-1.72,1.63-.34.43-.58,1-1,1.36a3.23,3.23,0,0,1-3.42,1.12c-1.48-.42-1.88-1.69-1.86-3a17.62,17.62,0,0,1,2.32-9.11,3.68,3.68,0,0,1,3.75-2c1.55.19,2.1,1.24,2.23,2.64,0,.39.11.84.63.85s.73-.44.82-.94A3.42,3.42,0,0,0,187.73,225.64Z"/><path class="cls-3" d="M178.49,226.14c-1-.16-.9,1.09-1.06,1.81-.81,3.62-1.58,7.25-2.38,11-.84-.48-.76-1.18-.9-1.77-.72-3.09-1.4-6.19-2.14-9.28-.19-.79-.12-1.86-1.4-1.86s-1.25,1-1.42,1.85q-1.37,6.16-2.62,12.34c-.12.59-.77,1.61.25,1.81s1-1,1.16-1.68c.83-3.75,1.63-7.51,2.44-11.27,1.27,3.61,2.05,7.23,2.94,10.83.22.88,0,2.32,1.55,2.24s1.25-1.47,1.46-2.37c.88-3.86,1.69-7.75,2.45-11.64C179,227.44,179.69,226.31,178.49,226.14Z"/><path class="cls-3" d="M196,234.18a5.29,5.29,0,0,0,3.95-.66c-1.73-.68-3.14-.31-4.48-.44-.53-.05-1.16.12-1.49-.48-.91-1.63,1.4-5.47,3.29-5.57,1.41-.07,2.91.38,4.66-.65-2.26-.75-4.14-.27-6-.46-1.65-.17-2.44.45-2.71,2.13-.44,2.66-1.09,5.27-1.66,7.91-1.4,6.58-1.4,6.59,5.3,6.23.58,0,1.52.23,1.57-.6s-.9-.6-1.46-.69a4.33,4.33,0,0,0-.72,0c-4.36,0-4.26,0-3.36-4.37C193.29,234.63,194.17,234.07,196,234.18Z"/><path class="cls-3" d="M167.47,201.2c.22-1.76,1-3.51.05-5.28h0l-.48-1.44h0a2.08,2.08,0,0,0-1-1.36h0l-1.49-.89h0l-.88-.57h-3.82l-1.93.87a.7.7,0,0,0,0,.14h0v-.14a5.83,5.83,0,0,0-2.88,1,6.56,6.56,0,0,0-3.3,1.47,10.2,10.2,0,0,0-3.37,1.89,19.24,19.24,0,0,0-5.76,3.78c-.73,0-1.08.6-1.58,1-2.49,1.82-4.48,4.61-8.21,4-1.25-.21-1.21,1-1.39,1.84-.75,3.38-1.45,6.78-2.17,10.17a87.92,87.92,0,0,1-1.23-9.86c-.1-1.09.06-2.48-1.67-2.17s-3.93-1.28-4.43,1.93c-.56,3.52-1.51,7-2.16,10.48-.75,4-1.8,7.79-4.45,11.09a23.5,23.5,0,0,0-4.14,7.42c-.68,1-1.48,2-1.44,3.31a6.77,6.77,0,0,0-1,3.27h0c-.39,1.64-1.35,3.21-.47,5,.14.48.28,1,.43,1.44h0l.71,1.29a1.94,1.94,0,0,0,1.26,1.06l1,.45h0c2.48,1,4.82.18,7.18-.52h0a9,9,0,0,0,5.7-2.83c-3.34.24-5.9,1.19-8.56,1l-.93,0h-.51l-1.44-.45h0l-1.39-1.52-.51-.93-.45-1.91.39-3.32.6-2.89h0a11.77,11.77,0,0,0,1.82-4.28c1.52-2.42,3-4.83,4.55-7.26.53-.85,1.1-1.57,2.24-1.41,1.63.23,2.18-.57,2.45-2.1.65-3.56,1.5-7.08,2.27-10.61l.39,0q.57,6.12,1.13,12.23c.69.81,1.62.48,2.45.5,2.87.08,2.89.06,2.28,3-.79,3.8-1.64,7.59-2.41,11.4-.11.54-.62,1.41.26,1.64s1-.74,1.16-1.4c.33-1.47.72-2.94.94-4.42a2,2,0,0,1,2.38-2,9.06,9.06,0,0,0,4.52-.5c-1.61-.86-2.88-.49-4.07-.61-.6-.06-1.5.2-1.69-.5-.43-1.59.3-3.11.7-4.62.31-1.18,1.37-.84,2.19-.91,1.42-.12,2.91.24,4.28-.56-1.62-.82-3.33-.43-5-.57-.88-.08-2,.38-2.45-.87.79-3.72,1.76-7.4,2.34-11.15.63-4.14,1.85-7.73,5.75-10a20.11,20.11,0,0,0,2.94-2.29l4.32-2.83c1.16-.07,1.94-.91,2.86-1.46a16.06,16.06,0,0,0,4.28-1.89,3.05,3.05,0,0,0,1.93-.48l1.89-.4,1.91,0h0a1.34,1.34,0,0,0,.4.06c1,.49,2.13.57,3,1.35l1,1.43c.15.64.3,1.27.46,1.91h0c0,1,0,1.93,0,2.9a29.72,29.72,0,0,0-1.42,5.72,12.38,12.38,0,0,0-2.07,5.32,13.5,13.5,0,0,0,3.49-5.8,36.06,36.06,0,0,0,2.38-6.2Z"/><path class="cls-3" d="M164.63,239.13c-.26-3.15-.41-6.16-.81-9.14-.18-1.35.72-3.49-1.18-3.87s-2,1.94-2.64,3.14c-2.05,3.76-3.92,7.61-5.83,11.43-.19.38-.69.87-.16,1.26s1-.08,1.32-.56a2.76,2.76,0,0,0,.42-.84c.74-2.94,2.81-3.39,5.45-3.12,1.22.12,1.84.4,2,1.74.1,1-.51,2.88.84,2.76C165.73,241.78,164.17,240,164.63,239.13Zm-3.3-3c-.93-.07-2.16.41-2.74-.27s.37-1.71.74-2.52c.83-1.86,1.75-3.67,2.64-5.49l.5.16c.11,2.2.18,4.41.36,6.6C162.93,235.78,162.42,236.18,161.33,236.11Z"/><polygon class="cls-4" points="231.15 113.06 231.15 57.44 184.22 29.63 137.28 57.44 137.28 113.06 184.22 140.88 231.15 113.06"/><path class="cls-5" d="M178.42,88.7a4.9,4.9,0,0,0-1.28-.48,2.3,2.3,0,0,0-2.45,2.88A2.51,2.51,0,0,0,176.53,93h.78l1.12-.66.07.48h1.34v-4.5H178.5C178.46,88.49,178.43,88.63,178.42,88.7Zm-.1,2.36a1.17,1.17,0,0,1-1.06.73,1.22,1.22,0,0,1-1.08-1.7,1.12,1.12,0,0,1,1.06-.71,1.28,1.28,0,0,1,.48.09,1.17,1.17,0,0,1,.7,1.13A1.4,1.4,0,0,1,178.32,91.06Z"/><path class="cls-5" d="M189.34,90.18c.43-.58.82-1.19,1.29-1.88a6.27,6.27,0,0,1-.78,0,1.09,1.09,0,0,0-1.26.66,16.55,16.55,0,0,1-.92,1.43l-.14,0V86.24h-1.39v6.59h1.42v-2a2.66,2.66,0,0,1,.7.87,1.77,1.77,0,0,0,2.41,1.07c-.44-.62-.86-1.23-1.31-1.82A.54.54,0,0,1,189.34,90.18Z"/><path class="cls-5" d="M172.75,89.46a1.54,1.54,0,0,0,.81-1.74,1.33,1.33,0,0,0-1.17-1.14c-1.18-.08-2.37,0-3.55,0v6.31h2.9a3.38,3.38,0,0,0,.45,0A2.07,2.07,0,0,0,174,91.78C174.44,90.85,174,90,172.75,89.46Zm-1.13-1.73a.84.84,0,0,1,.49.62,1,1,0,0,1-.57.61,4.19,4.19,0,0,1-1.18,0c0-.1-.06-.13-.07-.17C170.16,87.67,170.5,87.36,171.62,87.73Zm.23,3.94c-.5,0-1,0-1.54,0V90.19c.56,0,1.06,0,1.56,0s.76.25.74.74A.72.72,0,0,1,171.85,91.67Z"/><path class="cls-5" d="M175.28,81.86c0-.65.3-1,.81-1s.78.34.79,1,0,1.57,0,2.39h1.42c0-1.08,0-2.11,0-3.14a1.41,1.41,0,0,0-1.57-1.46,7.89,7.89,0,0,0-1.48.44V77.67h-1.35v6.6h1.39C175.28,83.43,175.27,82.64,175.28,81.86Z"/><path class="cls-5" d="M171.1,84.43a2.24,2.24,0,0,0,2.14-1.94c.09-1-.48-1.68-1.75-2a4.47,4.47,0,0,1-1.05-.35.69.69,0,0,1-.3-.58c0-.18.26-.39.46-.46a.71.71,0,0,1,.9.36.64.64,0,0,0,.38.31,7.29,7.29,0,0,0,1.06,0,4.71,4.71,0,0,0-.11-.6,1.92,1.92,0,0,0-2.06-1.31,1.88,1.88,0,0,0-2.13,1.68c-.13,1,.38,1.66,1.59,2a5.34,5.34,0,0,1,1.07.34.86.86,0,0,1,.4.64,1,1,0,0,1-.44.63A.9.9,0,0,1,170,82.7c-.08-.12-.2-.3-.32-.31a11.2,11.2,0,0,0-1.17,0,4.71,4.71,0,0,0,.11.6A2.21,2.21,0,0,0,171.1,84.43Z"/><path class="cls-5" d="M182.7,83.81c.05.16.09.31.13.46h1.29V79.78h-1.35c0,.16-.05.3-.08.45a2.67,2.67,0,0,0-1.64-.59,2.1,2.1,0,0,0-1.45.66,2.25,2.25,0,0,0-.46.74,2.64,2.64,0,0,0-.17.88,2.53,2.53,0,0,0,.52,1.68C180.27,84.55,181.43,84.63,182.7,83.81Zm-1.19-3A1.14,1.14,0,0,1,182.72,82a1.19,1.19,0,0,1-1.17,1.24A1.16,1.16,0,0,1,180.41,82,1.11,1.11,0,0,1,181.51,80.82Z"/><path class="cls-5" d="M150.57,77.5V93h15.5c0-1.49,0-3,0-4.48,0-3.68,0-7.36,0-11Zm11,7.56c.08.28.22.55.32.83.4,1.15.08,1.66-1.17,1.8.06,1,1,.66,1.5,1a3.7,3.7,0,0,1-1.54,2.74c-.32.23-.93.07-1.41.06a.47.47,0,0,1-.12-.37.55.55,0,0,1,.36-.27c1-.12,1-.12,1.15-1.08,0,0,0-.07-.07-.08-1.33-.25-1.32-.25-1.35-1.6a11.57,11.57,0,0,0-.11-1.17,1.15,1.15,0,0,0-.11-.31,1,1,0,0,0-.49,1.55c.32.51.11.77-.27,1a6.18,6.18,0,0,1-1,.47c-.35.14-.79.12-.93.6a.28.28,0,0,1-.23.12,4.36,4.36,0,0,1-.83-.57c-.06-.06.07-.35.15-.52.19-.39.34-.74.91-.33.16.11.68-.3,1-.46a10.15,10.15,0,0,1-.56-1c-.26-.68-.2-.81.46-1.13a6.72,6.72,0,0,1,.67-.28l.81-.26-.84-.69-.75-.68-2,.22c-.07,0-.18,0-.22,0-.56.67-.81,0-1.12-.3a.54.54,0,0,1,0-.51c.27-.18.4-.81.81-.47.67.55,1.21.12,1.8-.07a1.65,1.65,0,0,0,.44-.28l-1.25-1.64a.46.46,0,0,0-.12-.12c-.17-.09-.47-.16-.48-.27a1.51,1.51,0,0,1,.1-.81c.18-.51.62-.12.93-.18.1,0,.4.27.37.35-.18.65.29.92.67,1.22.69.52.87.46,1.28-.36l-.71.11-.6-.83,1.16.1a1.48,1.48,0,0,1,0-.21h-.68c-.28-.64-.24-.75.36-.94.23-.08.48-.09.71-.15a6.58,6.58,0,0,0,.64-.27,1.79,1.79,0,0,1,1.19,2.18,11,11,0,0,1-.77,1.77,1,1,0,0,0-.07.58c.32,1,.69,2.09,1,3.14.09.35.2.51.55.45a.5.5,0,0,0,.43-.66,6.16,6.16,0,0,0-.26-.67,8.59,8.59,0,0,1-.42-1.62,2,2,0,0,1,1.7-2.17c-.23.57-.23,1.17-.76,1.59A1.26,1.26,0,0,0,161.52,85.06Z"/><path class="cls-5" d="M184.3,88.32a1.69,1.69,0,0,0-2,.4s-.09,0-.17.08c0-.17-.06-.33-.08-.48h-1.3v4.53h1.36c0-.25,0-.45,0-.65,0-.54,0-1.09,0-1.63a2.11,2.11,0,0,1,.06-.61.77.77,0,0,1,1.5.2c0,.89,0,1.78,0,2.66h1.43c0-1,0-1.91,0-2.84A1.55,1.55,0,0,0,184.3,88.32Z"/><path class="cls-5" d="M204.52,79.65A2.36,2.36,0,0,0,202,82a2.57,2.57,0,0,0,5.12,0A2.34,2.34,0,0,0,204.52,79.65Zm0,3.58A1.16,1.16,0,0,1,203.38,82a1.11,1.11,0,0,1,1.15-1.18A1.09,1.09,0,0,1,205.66,82,1.14,1.14,0,0,1,204.55,83.23Z"/><path class="cls-5" d="M216.67,82.55a.75.75,0,0,1,0-1.12c.4-.5.73-1.05,1.17-1.69a5.14,5.14,0,0,1-.69,0,1.21,1.21,0,0,0-1.42.76,14.46,14.46,0,0,1-.87,1.33l-.15-.06V77.66h-1.39v6.6h1.4v-2l.16,0,.84,1.25a1.55,1.55,0,0,0,2.13.68C217.46,83.63,217.11,83.06,216.67,82.55Z"/><path class="cls-5" d="M200.06,80.47c0-.29-.06-.48-.08-.67h-1.27v4.5a8.4,8.4,0,0,1,.88,0c.4,0,.53-.14.5-.52s0-.71,0-1.07c0-1.32.08-1.41,1.36-1.64,0,0,.05,0,.09-.07V79.74A1.4,1.4,0,0,0,200.06,80.47Z"/><path class="cls-5" d="M191.59,79.75c-.51-.07-.72.13-.81.63-.13.69-.35,1.36-.54,2a20.58,20.58,0,0,1-1-2.24c0-.14-.14-.33-.27-.38a1,1,0,0,0-1.34.6c-.25.67-.49,1.34-.74,2a17.45,17.45,0,0,1-.75-2.25c-.05-.15-.2-.34-.32-.36a8.76,8.76,0,0,0-1.16,0c.45,1.43.87,2.76,1.28,4.09.1.31.22.51.58.45s.82.17,1-.43c.25-.78.59-1.53.89-2.29h.13c.32.8.64,1.59.94,2.39.2.55.66.31,1,.31a.69.69,0,0,0,.48-.38c.25-.66.44-1.35.66-2s.43-1.38.66-2.12A4.55,4.55,0,0,1,191.59,79.75Z"/><path class="cls-5" d="M210.15,79.65A2.33,2.33,0,0,0,207.58,82a2.55,2.55,0,0,0,5.1,0A2.34,2.34,0,0,0,210.15,79.65Zm-.07,3.58A1.13,1.13,0,0,1,209,82a1.09,1.09,0,0,1,1.15-1.17A1.11,1.11,0,0,1,211.27,82,1.17,1.17,0,0,1,210.08,83.23Z"/><path class="cls-5" d="M196.4,79.72a1.85,1.85,0,0,0-2.13.66V77.67h-1.39v6.61h1.36c0-.18,0-.32,0-.53a2.23,2.23,0,0,0,3.08,0,2.49,2.49,0,0,0,.27-3.19A2.78,2.78,0,0,0,196.4,79.72Zm-.92,3.51A1.2,1.2,0,0,1,194.3,82a1.15,1.15,0,0,1,1.21-1.18A1.17,1.17,0,0,1,196.64,82,1.2,1.2,0,0,1,195.48,83.23Z"/><polygon class="cls-4" points="128.78 114.47 128.78 38.16 64.39 0 0 38.16 0 114.47 64.39 152.63 128.78 114.47"/><path class="cls-6" d="M40.73,86.42c-1.16.45-3-.43-3.51,1.88-.79,4-1.75,8-2.6,12-.11.5-.51,1.26.41,1.41.74.12,1.66.4,2-.68a4.38,4.38,0,0,0,.25-1.07c.14-2.15.83-3.25,3.43-3.17,3.14.1,5.39-2.92,5.22-6.14C45.82,87.94,44,86.39,40.73,86.42Zm1.06,7.82a2.42,2.42,0,0,1-2.65.51c-1-.53-.18-1.43-.16-2.16a7.63,7.63,0,0,1,.4-1.93c.28-1,.08-2.41,1.81-2.11a2.37,2.37,0,0,1,2.1,2.52A3.79,3.79,0,0,1,41.79,94.24Z"/><path class="cls-6" d="M50.43,82a1.65,1.65,0,0,0-1.69,1.65,1.37,1.37,0,0,0,1.44,1.57A1.79,1.79,0,0,0,52,83.48,1.46,1.46,0,0,0,50.43,82Z"/><path class="cls-6" d="M33.18,86.73a6.37,6.37,0,0,0-5.28.6c-.42.24-.14.82,0,1.22s.57.39.91.27a5.21,5.21,0,0,1,2.59-.3A1.19,1.19,0,0,1,32.5,89.7c0,.76-.73.56-1.19.59a7.4,7.4,0,0,0-4,1.1,3.17,3.17,0,0,0-1.09,4.28c.75,1.52,2.24,1.52,3.65,1.08.92-.29,1.67-1.35,2.69,0,.23.31,1.57.1,1.59-.91,0-2,.74-3.89,1-6.15A2.74,2.74,0,0,0,33.18,86.73ZM32,93a2.73,2.73,0,0,1-2.52,1.91.94.94,0,0,1-1-1.11c.33-1.56,1.69-1.54,2.89-1.67C31.8,92.05,32.09,92.32,32,93Z"/><path class="cls-6" d="M25,85c.77.16,1.36.5,1.59-.66.2-1-.26-1.36-1.07-1.52s-1.45-.19-1.8-.24A8.58,8.58,0,0,0,15,88.52a6.25,6.25,0,0,0,1.39,6.89c2,2.07,4.5,1.8,7,1.14.78-.2,1.65-.44,1.37-1.58-.34-1.41-1.25-.53-1.91-.4-3.49.68-5.61-1.23-5.23-4.75S21,84.19,25,85Z"/><path class="cls-6" d="M57.52,86.69c-1.16,0-1.12-.63-.92-1.5-.05-.33.4-.88-.19-1.08a1.69,1.69,0,0,0-1.84.39c-.7,1-1,2.28-2.5,2.58-.27.06-.83,1.26.2,1.51s.83,1,.7,1.67c-.17.94-.4,1.86-.6,2.79-.26,1.21-.73,2.55.5,3.44s2.65.49,4,0c.61-.23,1-.53.73-1.3a.81.81,0,0,0-1.17-.58c-.55.18-1.5.31-1.46-.37a29.66,29.66,0,0,1,.8-4.72c.2-1,1.07-.81,1.78-.85a1.25,1.25,0,0,0,1.22-1.31C58.84,86.35,58,86.69,57.52,86.69Z"/><path class="cls-6" d="M71.66,59.06c-1.57-.11-2.2,1.18-2.54,2.56-.21.82,0,1.2.93,1.3.65.08,1.85-.49,1.74.89a1.68,1.68,0,0,1-2.05,1.73c-1.22-.15-1.45.7-1.59,1.63a44.63,44.63,0,0,1-2.1,9.41c-.4,1.09,0,1.27,1,1.1C75.46,76.24,80.21,64.6,75,57.27,74.59,59.47,73.19,59.17,71.66,59.06Z"/><path class="cls-6" d="M60.2,77.72a1.85,1.85,0,0,0,2.53-1.31,17.84,17.84,0,0,0,1.32-4.64,11.21,11.21,0,0,0,.77-4c.12-1.17,1-2.66-1.27-2.79-.51,0-.42-.66-.37-1.09a.91.91,0,0,1,1-.9c1.12,0,1.45-.64,1.63-1.6s.52-1.88.79-2.82a4.56,4.56,0,0,1-2.83,1.53,4.33,4.33,0,0,0-3.69,3.83c-.3,1.71-.21,3.39,1.67,4.31,1.63.41,3,1,1.79,3-2.64.24-5-.15-6.29-2.86a7.53,7.53,0,0,1,1.08-8.23c1.86-2.4,4.48-3.13,7.42-2.9.75.05.9.56.91,1.17a7.26,7.26,0,0,1,7.58-1.85,1.16,1.16,0,0,0-.36-1.18A13.68,13.68,0,0,0,50,65.57,13.86,13.86,0,0,0,60.2,77.72Z"/><path class="cls-6" d="M50,86.67c-.86,0-1.58,0-1.8,1.09-.51,2.57-1.09,5.13-1.64,7.7-.12.56-.39,1.25.55,1.3.68,0,1.61.36,1.86-.64.68-2.83,1.28-5.69,1.92-8.53C51.06,86.84,50.64,86.7,50,86.67Z"/><path class="cls-6" d="M94.2,86.42a5.75,5.75,0,0,0-5.67,5.78c-.12,3,1.36,4.7,4.14,4.76a5.64,5.64,0,0,0,5.78-5.83C98.54,88.21,96.94,86.44,94.2,86.42Zm-1.26,8.46c-1.5-.16-1.87-1.26-1.87-2.53,0-2.09,1.34-3.88,2.89-3.79s2,1.26,1.92,2.63C95.82,93.38,94.52,95.05,92.94,94.88Z"/><path class="cls-6" d="M87.72,81.76c-.79-.09-1.67-.23-1.91.91q-1.28,5.91-2.58,11.84A7.33,7.33,0,0,0,83.5,96c.37.89,1.2,1,2,.92.64,0,1.39,0,1.72-.71.21-.47.28-1.2-.24-1.37-1.44-.49-.9-1.44-.71-2.33.65-3.09,1.33-6.17,2-9.26C88.37,82.72,88.86,81.87,87.72,81.76Z"/><path class="cls-6" d="M110.91,88.44c-.51,1.41-1.25,2.74-1.88,4.1l-.41-.08c-.2-1.41-.38-2.82-.61-4.23-.11-.61,0-1.38-.91-1.53s-1.3.43-1.64,1.13c-.77,1.58-1.57,3.15-2.36,4.73A19.4,19.4,0,0,1,102,87.68c-.13-1.09-.85-1-1.6-1-1,0-.94.6-.82,1.33.41,2.46.76,4.93,1.18,7.39.11.59,0,1.37,1,1.47a1.58,1.58,0,0,0,1.72-1c.8-1.61,1.67-3.19,2.76-5.23.33,2.07.56,3.59.8,5.11.1.59.18,1.16,1,1.16a1.38,1.38,0,0,0,1.45-.74c1.56-3,3.16-6.09,4.78-9.18C112.44,86.25,111.5,86.83,110.91,88.44Z"/><path class="cls-6" d="M83,84c.93.27,1.13-.51,1.32-1.1.27-.88-.54-.89-1.06-1a6.1,6.1,0,0,0-1.11-.15,4.32,4.32,0,0,0-4.47,3.44c-.22.68-.24,1.29-1.21,1.58-1.21.36-1.68,1.27-.18,2A.9.9,0,0,1,77,89.89c-.49,3.12-.93,6.27-2.9,8.9-.56.74-1.14,1.32-.1,2.18s1.57-.14,2.06-.72c2.23-2.64,2.84-5.91,3.35-9.18.19-1.3.21-2.5,2-2.39.81,0,1.06-.76,1.08-1.42,0-.81-.72-.57-1.16-.57-1.36,0-1.2-.81-.85-1.62A1.9,1.9,0,0,1,83,84Z"/><path class="cls-6" d="M72.85,94.88c-1.52-.58-.85-1.64-.66-2.57.62-3,1.3-6,1.91-9,.11-.54.6-1.4-.54-1.52-.79-.09-1.68-.21-1.93.91l-2.58,12A7,7,0,0,0,69.32,96c.35.92,1.19,1,2,1,.65,0,1.39,0,1.74-.7C73.31,95.77,73.38,95.08,72.85,94.88Z"/><path class="cls-6" d="M64,86.43c-.59.13-1.59.33-2.58.59-.64.17-.65.67-.55,1.23.14.74.58.69,1.14.56a13.13,13.13,0,0,1,2.15-.32,1.22,1.22,0,0,1,1.41,1.11c.06,1-.8.65-1.3.69a7.5,7.5,0,0,0-3.77,1,3.16,3.16,0,0,0-1.2,4.25c.85,1.74,2.48,1.69,4,1,.86-.38,1.41-1,2.28.13.32.4,1.68.18,1.7-1a37.79,37.79,0,0,1,.84-5C68.54,87.89,67.28,86.41,64,86.43ZM62.58,94.9a1,1,0,0,1-1.15-1c.15-1.53,1.47-1.56,2.58-1.77.5-.1,1,0,1.07.63A2.85,2.85,0,0,1,62.58,94.9Z"/><polygon class="cls-4" points="230.67 387.73 230.67 332.26 183.87 304.52 137.06 332.26 137.06 387.73 183.87 415.47 230.67 387.73"/><path class="cls-6" d="M158.75,355.75a7,7,0,0,0-5.64-4.18A7.66,7.66,0,0,1,158.75,355.75Z"/><path class="cls-6" d="M178.6,353.89c-1.46,0-3.43,1.52-4.4,2.52l0-.09a9,9,0,0,1,3.23-2.26,7.75,7.75,0,0,0-3.26,2.17,4,4,0,0,0-3.58-2.54,5.28,5.28,0,0,0-3.66,1.83v-.2a6.31,6.31,0,0,1,2.49-1.55,6.07,6.07,0,0,0-2.52,1.23s-.05-.74-.08-1-.2-.51-.54-.51c-.15,0-.38-.37-.58-.52,0,.15,0,.92,0,1.06-.18-.23-.12-.43-.26-1.2v.08a2,2,0,0,1-.09.43,1.89,1.89,0,0,1-.14-.68v.14c0,.32,0,1.06,0,1.37v.15c-.06.11-.12-1.23-.26-1.43-.06.11-.06.2-.11.31-.15-.06-.38-.43-.6-.49-.15.12-.26.61-.38.69-.05-.11-.14-.28-.25-.28-.26,0-.4-.18-.63-.18a.32.32,0,0,0-.17,0c-.21.06-.52.26-.52,1.32,0,1.8,0,11.61.11,12.56,0,.31.26.51.66.51a1.12,1.12,0,0,0,.8-.54c.15,0,.32.14.6.14a10.63,10.63,0,0,0,1.52.34c.63,0,.57-.42.69-.6.45,0,.63-.48.63-.74,0-1.14-.06-4-.26-8.61a5.17,5.17,0,0,0,1.4-.57,2.85,2.85,0,0,1,1.75,2.14c0,1.38.05,3.78.11,4.95a9.25,9.25,0,0,0,.6,2.75,1.79,1.79,0,0,1,.63-1.32c.09.14.37.17.46.17.46,0,.54-.2,1-.57.2.17.77.23,1,.72a3.08,3.08,0,0,0,.63-1.69V359.3c.51-1.21,1.37-1.92,1.92-1.92h.22c.63,0,1.43.08,1.43,1.77,0,1.89-.91,5-.91,6.12,0,.15.26.35.43.41l.31,0a.49.49,0,0,0,.4.32c0,.08.09.17.18.4a3.88,3.88,0,0,1,.34-.6,3.36,3.36,0,0,1,.08,1,2,2,0,0,0,.23-.29c0,.2,0,.32,0,.55v.2c.06-.26.43-2.35.49-2.63v0c0,.32-.23,1.81-.26,2.21a1.76,1.76,0,0,1,.2-.52.69.69,0,0,1,0,.26v.14a1.11,1.11,0,0,1,.26-.54.24.24,0,0,1,0,.14v.23l.14-.17c0,.08,0,.2.06.31a1.75,1.75,0,0,0,.08-.51c.06,0,.09.17.14.17h.12a1.6,1.6,0,0,0,.4-.06c.34,0,.4-.28.69-1.11a22,22,0,0,0,1-6.18C182.64,355.58,181.64,353.89,178.6,353.89Zm-4.34,2.69,0-.09a10.79,10.79,0,0,1,3.46-2.37A13.87,13.87,0,0,0,174.26,356.58Z"/><path class="cls-6" d="M160,366.88a5,5,0,0,1-1.31-2.29c0-.6.4-5,.4-7,0-3.66-4.32-5.92-7-5.92a2.15,2.15,0,0,0-1.38.28,1.2,1.2,0,0,1,.81.23,6.92,6.92,0,0,0-1.46.23,1.8,1.8,0,0,1,.6.09c-.43,0-1.12.48-1.12,1.6a1.05,1.05,0,0,0,.72,1.12c2.83,0,4.77,1.28,4.77,3.37,0,.17,0,.4,0,.63a1.08,1.08,0,0,0-.29-.23,1.8,1.8,0,0,0-.2-.11,1.84,1.84,0,0,0-.49-.06.74.74,0,0,0-.51-.26c-.6,0-5.75.8-5.75,4.27s1.46,5.55,5.12,5.55a1,1,0,0,0,1-.66,5.73,5.73,0,0,1,.83-.46,2.52,2.52,0,0,1,.26-.77,6.77,6.77,0,0,0,3,2.26c.11,0,.77-.06,1-.35a1.57,1.57,0,0,1,.32,0,6.64,6.64,0,0,0-.66-.46c.2.06,1,.48,1.06.48l-.55-.34a2.12,2.12,0,0,1,.41.12,1.3,1.3,0,0,0-.2-.26,4.14,4.14,0,0,1,.74-.09c0-.11-.14-.14-.23-.23.37,0,.51,0,.51-.05A.9.9,0,0,0,160,366.88Zm-5.15-5.67a6.65,6.65,0,0,0-3.46,1.35,6.27,6.27,0,0,1,3.43-1.2c-.08,1-.14,2.08-.2,3.14a11.34,11.34,0,0,0-2.54.77,3.15,3.15,0,0,1-1-2.26c0-.42,1.44-1.74,3.75-1.91Zm0-.25a8.18,8.18,0,0,0-2.63.74,6.6,6.6,0,0,1,2.66-.92Z"/><path class="cls-6" d="M203.09,351.94c0-.43-.48-1.11-1-1.11a13.88,13.88,0,0,1-1.43.2,4.33,4.33,0,0,1-1.11-.37c0,.65.17,3.11.17,3.54v.06c-.06-.09-.46-.2-.55-.31s0-.29.12-.35a1.28,1.28,0,0,0-.69-.17,1.56,1.56,0,0,0,.32-.51c-.15-.18-1-.23-1.23-.23-3.06,0-5.9,3.72-5.9,7.06a7,7,0,0,0,7.21,7.33c.89,0,1.72-1.2,1.72-1.35l.11,0a3.61,3.61,0,0,1,.15,1c0,.2,0,.43,0,.66,0,1.06-.37,2.2-4.46,2.2-1.66,0-1.46-.34-2.34-.34-.55,0-.69.37-1,.37a3,3,0,0,0,1.4,1.12,3.63,3.63,0,0,1-1.38-.32,5,5,0,0,0,2,.66,5.57,5.57,0,0,1-1.86-.31,2.65,2.65,0,0,0,.8.37,1.19,1.19,0,0,1-.4.08,2.05,2.05,0,0,0,.94.2,2,2,0,0,1-.6.12c.09.23,0,1.54,3,1.54,4.86,0,8-2.57,8-6.63a103.31,103.31,0,0,0-1.21-13.05C203.69,352.43,203.32,351.94,203.09,351.94Zm-7,8a7,7,0,0,1,3.66-4.54c.2,2.23.49,5.35.78,8.29C198.54,362.84,196.11,361.76,196.11,359.92Z"/><path class="cls-6" d="M211.36,352.89a.8.8,0,0,0,.4.66,3.25,3.25,0,0,0-.74.45,4.07,4.07,0,0,0,.8,1c-.58.11-5,2.71-5,6.35,0,4.32,3.23,5.37,4.72,5.37-.08.12-.31.21-1.06.21a3,3,0,0,0,1,.2,1.58,1.58,0,0,1-1.08.28,1.73,1.73,0,0,0,.45,0,3.1,3.1,0,0,0,1.23-.2,1.21,1.21,0,0,1-.8,1,1.67,1.67,0,0,0,.86.2,1.93,1.93,0,0,0,.89-.37c0,.26,0,.71.51.71,2.61,0,6.47-2.54,6.47-7.55A8.63,8.63,0,0,0,211.36,352.89Zm.66,12.76c-1.26-.2-1.6-2.61-1.63-4.47.74-1.6,2.91-3,3.23-4.8a8,8,0,0,1,2.23,3.34,7.6,7.6,0,0,0-2.2-3.57V356a6.08,6.08,0,0,1,2.34,5C216,363.59,213.5,364.79,212,365.65Z"/><path class="cls-6" d="M196.23,359.75c.34-1.48,2.48-3.66,3.2-4.06C198.66,356,196.48,358.18,196.23,359.75Z"/><path class="cls-6" d="M185.24,366.3c0-1.63-.34-10.09-.4-10.52C184.84,357.66,185.13,364.47,185.24,366.3Z"/><path class="cls-6" d="M188.87,347.85c-.51-.43-.83-1-1.46-1-2,0-2.88.6-2.88,3,0,1.2,1,1.6,2.51,1.6a2.66,2.66,0,0,0,2.81-2.35C189.85,348.25,189.36,348.25,188.87,347.85Z"/><path class="cls-6" d="M189,354.35a2,2,0,0,0-.8.2c-.32-.2-.72-1.23-1.66-1.23-.35.08-.57.54-1,.54-.23,0-.52.26-.52,1.32,0,2.4.29,12,.37,12.93,0,.31.26.51.66.51s.63-.77.74-1c.06,0,.49.09.86.17a4.42,4.42,0,0,0,.37-.54c.09.08.18.4.29.54,0-.11,0-.23.09-.26s0,.46.11.55c.06-.2.06-1.12.09-1.15.25.15.4.78.51,1.09.09-.23.06-.54.17-.71a.5.5,0,0,0,.49-.46c0-5.67-.17-11.44-.26-12C189.5,354.75,189.33,354.35,189,354.35Z"/><polygon class="cls-4" points="128.54 405.66 128.54 331.51 65.98 294.44 3.42 331.51 3.42 405.66 65.98 442.73 128.54 405.66"/><path class="cls-6" d="M23.51,364.91h6.1c0,1.66-6.41,5.69-6.41,10.14v.73H36.13v-3.63H30c0-1.65,6.41-5.69,6.41-10.13v-.73H23.51Z"/><path class="cls-6" d="M103,361.29H98l-6.1,14.49h5l.73-2.07H103l.72,2.07h5.07Zm-4.14,9,1.55-4.24,1.45,4.24Z"/><path class="cls-6" d="M78,361.29H71.52v14.49h4.55v-3.73h2c3.73,0,5.9-2.07,5.9-5.48S81.76,361.29,78,361.29Zm1.35,5.28A1.56,1.56,0,0,1,78,368.33H76v-3.42h1.76a1.52,1.52,0,0,1,1.66,1.35Z"/><path class="cls-6" d="M53.62,361.19c-4.66,0-8,3.1-8,7.34S49,376,53.62,376s8-3.21,8-7.45S58.17,361.19,53.62,361.19Zm.1,10.76h-.1a3.33,3.33,0,0,1-3.11-3.42,3.23,3.23,0,0,1,3-3.41h.11a3,3,0,0,1,3,3.21v.2A3.1,3.1,0,0,1,53.72,372Z"/></g></g></svg>