<svg xmlns="http://www.w3.org/2000/svg" viewBox="0 0 238.91 212"><defs><style>.cls-1{fill:#f5f5f5;}.cls-2{fill:#afafac;}.cls-3{fill:#e86b05;}.cls-4{fill:#575756;}</style></defs><title>growing-team</title><g id="Layer_2" data-name="Layer 2"><g id="Navigation"><path class="cls-1" d="M85.87,209a80,80,0,1,1,80-80A80.09,80.09,0,0,1,85.87,209Zm0-145a65,65,0,1,0,65,65A65.07,65.07,0,0,0,85.87,64Z"/><path class="cls-2" d="M85.83,209V194a65,65,0,1,0-65-65h-15a80,80,0,1,1,80,80Z"/><path class="cls-3" d="M85.83,209V194a65,65,0,0,0,46-110.94l10.61-10.61A80,80,0,0,1,85.83,209Z"/><path class="cls-4" d="M4.36,44.79a2.74,2.74,0,0,1,1,1.12,3.67,3.67,0,0,1,0,3.21,2.74,2.74,0,0,1-1,1.12,2.54,2.54,0,0,1-1.43.41,2.54,2.54,0,0,1-1.28-.33,2.54,2.54,0,0,1-.93-.88v3.17a.35.35,0,0,1-.1.26.4.4,0,0,1-.26.1.4.4,0,0,1-.26-.1.35.35,0,0,1-.1-.26V44.78a.35.35,0,0,1,.1-.26.36.36,0,0,1,.52,0,.35.35,0,0,1,.1.26v.82a2.27,2.27,0,0,1,.9-.89,2.69,2.69,0,0,1,1.3-.32A2.7,2.7,0,0,1,4.36,44.79ZM4,49.66a2.16,2.16,0,0,0,.78-.88A2.79,2.79,0,0,0,5,47.51a2.75,2.75,0,0,0-.28-1.26A2.2,2.2,0,0,0,4,45.38a2.06,2.06,0,0,0-1.12-.32A2.07,2.07,0,0,0,.94,46.24a2.76,2.76,0,0,0-.28,1.27,2.79,2.79,0,0,0,.28,1.27,2,2,0,0,0,.78.88A2.08,2.08,0,0,0,2.86,50,2.06,2.06,0,0,0,4,49.66Z"/><path class="cls-4" d="M12.3,47.39a.36.36,0,0,1-.25.11H7.51a2.73,2.73,0,0,0,.3,1.29,2.14,2.14,0,0,0,.84.9A2.43,2.43,0,0,0,9.94,50a2.2,2.2,0,0,0,1-.24,2.12,2.12,0,0,0,.73-.62.4.4,0,0,1,.25-.1.31.31,0,0,1,.31.31.35.35,0,0,1-.12.25,2.94,2.94,0,0,1-1,.77,2.66,2.66,0,0,1-1.23.3,3.2,3.2,0,0,1-1.63-.4,2.76,2.76,0,0,1-1.11-1.11,3.35,3.35,0,0,1-.39-1.65,3.64,3.64,0,0,1,.39-1.72,2.83,2.83,0,0,1,1-1.13,2.67,2.67,0,0,1,1.38-.39,2.76,2.76,0,0,1,1.35.34,2.62,2.62,0,0,1,1,1,3,3,0,0,1,.41,1.54A.32.32,0,0,1,12.3,47.39Zm-4-1.92a2.24,2.24,0,0,0-.76,1.38h4.09v-.1a1.89,1.89,0,0,0-.36-.94,1.93,1.93,0,0,0-.75-.61A2.18,2.18,0,0,0,9.62,45,2,2,0,0,0,8.33,45.47Z"/><path class="cls-4" d="M19.16,49.13a2.79,2.79,0,0,1-1.09,1.14,3.05,3.05,0,0,1-3.09,0,2.87,2.87,0,0,1-1.1-1.14,3.41,3.41,0,0,1-.39-1.63,3.45,3.45,0,0,1,.39-1.64A3,3,0,0,1,15,44.71a3,3,0,0,1,4.18,1.15,3.35,3.35,0,0,1,.4,1.64A3.31,3.31,0,0,1,19.16,49.13Zm-.62-2.93a2.35,2.35,0,0,0-.83-.91A2.22,2.22,0,0,0,16.52,45a2.15,2.15,0,0,0-1.17.33,2.46,2.46,0,0,0-.84.91,2.77,2.77,0,0,0-.3,1.3,2.72,2.72,0,0,0,.3,1.28,2.46,2.46,0,0,0,.84.91,2.15,2.15,0,0,0,1.17.33,2.22,2.22,0,0,0,1.19-.33,2.19,2.19,0,0,0,.83-.9,2.73,2.73,0,0,0,.3-1.29A2.77,2.77,0,0,0,18.54,46.2Z"/><path class="cls-4" d="M25.39,44.79a2.84,2.84,0,0,1,1,1.12,3.76,3.76,0,0,1,0,3.21,2.81,2.81,0,0,1-1,1.12,2.57,2.57,0,0,1-1.44.41,2.51,2.51,0,0,1-1.27-.33,2.54,2.54,0,0,1-.93-.88v3.17a.36.36,0,0,1-.11.26.36.36,0,0,1-.25.1.38.38,0,0,1-.26-.1.35.35,0,0,1-.1-.26V44.78a.35.35,0,0,1,.1-.26.35.35,0,0,1,.26-.11.33.33,0,0,1,.25.11.36.36,0,0,1,.11.26v.82a2.15,2.15,0,0,1,.9-.89A2.68,2.68,0,0,1,24,44.39,2.65,2.65,0,0,1,25.39,44.79ZM25,49.66a2,2,0,0,0,.78-.88,2.79,2.79,0,0,0,.29-1.27,2.75,2.75,0,0,0-.29-1.26,2.1,2.1,0,0,0-1.9-1.19,2.12,2.12,0,0,0-1.14.31,2.2,2.2,0,0,0-.78.87,2.89,2.89,0,0,0-.27,1.27A2.92,2.92,0,0,0,22,48.78a2.16,2.16,0,0,0,.78.88,2.13,2.13,0,0,0,1.14.32A2,2,0,0,0,25,49.66Z"/><path class="cls-4" d="M29,50.47a.38.38,0,0,1-.26.1.34.34,0,0,1-.36-.36V42.05a.38.38,0,0,1,.1-.26.35.35,0,0,1,.26-.1.34.34,0,0,1,.36.36v8.16A.35.35,0,0,1,29,50.47Z"/><path class="cls-4" d="M36,47.39a.38.38,0,0,1-.26.11H31.19a2.85,2.85,0,0,0,.29,1.29,2.28,2.28,0,0,0,.84.9,2.48,2.48,0,0,0,1.29.33,2.18,2.18,0,0,0,1.77-.86.38.38,0,0,1,.25-.1.29.29,0,0,1,.21.09.3.3,0,0,1,.1.22.35.35,0,0,1-.12.25,3.09,3.09,0,0,1-1,.77,2.6,2.6,0,0,1-1.23.3,3.23,3.23,0,0,1-1.63-.4,2.73,2.73,0,0,1-1.1-1.11,3.25,3.25,0,0,1-.4-1.65,3.64,3.64,0,0,1,.39-1.72,2.85,2.85,0,0,1,1-1.13,2.62,2.62,0,0,1,1.38-.39,2.76,2.76,0,0,1,1.35.34,2.68,2.68,0,0,1,1,1,2.94,2.94,0,0,1,.4,1.54A.31.31,0,0,1,36,47.39Zm-4-1.92a2.19,2.19,0,0,0-.76,1.38h4.09v-.1a1.89,1.89,0,0,0-.36-.94,1.93,1.93,0,0,0-.75-.61A2.18,2.18,0,0,0,33.3,45,2,2,0,0,0,32,45.47Z"/><path class="cls-3" d="M171.6,203.82a2.74,2.74,0,0,1,1,1.12,3.4,3.4,0,0,1,.37,1.6,3.45,3.45,0,0,1-.37,1.62,2.86,2.86,0,0,1-1,1.12,2.66,2.66,0,0,1-1.44.41,2.57,2.57,0,0,1-1.28-.33,2.73,2.73,0,0,1-.93-.89v3.17a.34.34,0,0,1-.36.36.32.32,0,0,1-.25-.1.35.35,0,0,1-.11-.26v-7.82a.39.39,0,0,1,.11-.27.32.32,0,0,1,.25-.1.34.34,0,0,1,.26.1.38.38,0,0,1,.1.27v.81a2.24,2.24,0,0,1,.9-.88,2.64,2.64,0,0,1,1.3-.33A2.74,2.74,0,0,1,171.6,203.82Zm-.38,4.88a2.25,2.25,0,0,0,.78-.89,2.76,2.76,0,0,0,.28-1.27,2.7,2.7,0,0,0-.28-1.25,2.22,2.22,0,0,0-.78-.88,2,2,0,0,0-1.12-.32,2.13,2.13,0,0,0-1.14.32,2,2,0,0,0-.78.87,2.85,2.85,0,0,0-.28,1.26,2.89,2.89,0,0,0,.28,1.27,2,2,0,0,0,1.92,1.2A2,2,0,0,0,171.22,208.7Z"/><path class="cls-3" d="M177.77,203.42a.31.31,0,0,1,.19.29.36.36,0,0,1-.1.27.28.28,0,0,1-.22.1l-.24-.06a1,1,0,0,0-.33-.06,1.48,1.48,0,0,0-.88.34,2.77,2.77,0,0,0-.72.89,2.3,2.3,0,0,0-.28,1.09v3a.38.38,0,0,1-.1.26.35.35,0,0,1-.26.1.34.34,0,0,1-.36-.36v-5.37a.34.34,0,0,1,.36-.36.35.35,0,0,1,.26.1.38.38,0,0,1,.1.26v1a2.75,2.75,0,0,1,.83-1.13,2,2,0,0,1,1.32-.46A1,1,0,0,1,177.77,203.42Z"/><path class="cls-3" d="M184.09,208.16a2.94,2.94,0,0,1-1.09,1.15,3,3,0,0,1-4.19-1.15,3.6,3.6,0,0,1,0-3.26,3,3,0,0,1,1.09-1.15,3,3,0,0,1,4.19,1.15,3.52,3.52,0,0,1,0,3.26Zm-.62-2.93a2.28,2.28,0,0,0-.84-.9,2.19,2.19,0,0,0-1.18-.33,2.15,2.15,0,0,0-1.17.33,2.35,2.35,0,0,0-.84.9,2.8,2.8,0,0,0-.3,1.3,2.72,2.72,0,0,0,.3,1.28,2.31,2.31,0,0,0,.84.91,2.15,2.15,0,0,0,1.17.33,2.24,2.24,0,0,0,2-1.22,3,3,0,0,0,0-2.6Z"/><path class="cls-3" d="M187.51,201.66a1.05,1.05,0,0,0-.21.69v1.24h1.34a.29.29,0,0,1,.23.1.3.3,0,0,1,.11.24.34.34,0,0,1-.11.24.32.32,0,0,1-.23.09H187.3v5a.35.35,0,0,1-.11.26.32.32,0,0,1-.25.1.34.34,0,0,1-.36-.36v-5h-.88a.3.3,0,0,1-.24-.1.37.37,0,0,1-.1-.23.34.34,0,0,1,.1-.25.32.32,0,0,1,.24-.09h.88v-1.24a1.55,1.55,0,0,1,.43-1.17,1.69,1.69,0,0,1,1.17-.41,1.81,1.81,0,0,1,.63.1c.19.07.29.18.29.33a.33.33,0,0,1-.1.24.28.28,0,0,1-.22.1.73.73,0,0,1-.26-.06,1.64,1.64,0,0,0-.42-.07A.71.71,0,0,0,187.51,201.66Z"/><path class="cls-3" d="M195.28,206.43a.37.37,0,0,1-.26.1h-4.53a2.85,2.85,0,0,0,.29,1.29,2.28,2.28,0,0,0,.84.9,2.48,2.48,0,0,0,1.29.33,2.21,2.21,0,0,0,1.77-.85.4.4,0,0,1,.25-.11.35.35,0,0,1,.31.31.35.35,0,0,1-.12.25,3,3,0,0,1-1,.77,2.6,2.6,0,0,1-1.23.3,3.33,3.33,0,0,1-1.63-.39,2.86,2.86,0,0,1-1.1-1.11,3.3,3.3,0,0,1-.4-1.65,3.68,3.68,0,0,1,.39-1.73,2.82,2.82,0,0,1,1-1.12,2.62,2.62,0,0,1,1.38-.39,2.87,2.87,0,0,1,1.35.33,2.71,2.71,0,0,1,1,1,2.9,2.9,0,0,1,.4,1.53A.33.33,0,0,1,195.28,206.43Zm-4-1.93a2.19,2.19,0,0,0-.76,1.38h4.09v-.09a1.93,1.93,0,0,0-.36-.95,2,2,0,0,0-.75-.61,2.18,2.18,0,0,0-.93-.21A2,2,0,0,0,191.31,204.5Z"/><path class="cls-3" d="M196.43,208.37a.25.25,0,0,1,.15-.24.28.28,0,0,1,.2-.08.37.37,0,0,1,.26.12,2.23,2.23,0,0,0,1.88.94,1.86,1.86,0,0,0,1-.27.88.88,0,0,0,.42-.79.84.84,0,0,0-.39-.75,4,4,0,0,0-1.11-.43,4.75,4.75,0,0,1-1.56-.66,1.37,1.37,0,0,1-.56-1.18,1.5,1.5,0,0,1,.27-.88,2,2,0,0,1,.75-.61,2.67,2.67,0,0,1,1.08-.21,3,3,0,0,1,1,.19,2.41,2.41,0,0,1,.89.63.3.3,0,0,1,.11.24.35.35,0,0,1-.12.26.38.38,0,0,1-.22.07.26.26,0,0,1-.21-.1,2,2,0,0,0-.69-.49,2.19,2.19,0,0,0-.85-.17,1.7,1.7,0,0,0-1,.27.89.89,0,0,0-.4.79.86.86,0,0,0,.44.73,4.67,4.67,0,0,0,1.22.46,6.2,6.2,0,0,1,1,.34,1.86,1.86,0,0,1,.67.54,1.55,1.55,0,0,1,.25.93,1.45,1.45,0,0,1-.62,1.24,2.52,2.52,0,0,1-1.55.46,2.82,2.82,0,0,1-2.33-1.09A.54.54,0,0,1,196.43,208.37Z"/><path class="cls-3" d="M202.06,208.37a.25.25,0,0,1,.15-.24.26.26,0,0,1,.19-.08.37.37,0,0,1,.27.12,2.23,2.23,0,0,0,1.88.94,1.8,1.8,0,0,0,1-.27.87.87,0,0,0,.43-.79.83.83,0,0,0-.4-.75,3.76,3.76,0,0,0-1.1-.43,4.75,4.75,0,0,1-1.56-.66,1.35,1.35,0,0,1-.56-1.18,1.5,1.5,0,0,1,.27-.88,2,2,0,0,1,.75-.61,2.67,2.67,0,0,1,1.08-.21,2.88,2.88,0,0,1,1,.19,2.37,2.37,0,0,1,.9.63.3.3,0,0,1,.11.24.35.35,0,0,1-.12.26.38.38,0,0,1-.22.07.3.3,0,0,1-.22-.1,1.94,1.94,0,0,0-.68-.49,2.19,2.19,0,0,0-.85-.17,1.7,1.7,0,0,0-1,.27.9.9,0,0,0,0,1.52,4.53,4.53,0,0,0,1.22.46,6.2,6.2,0,0,1,1,.34,1.75,1.75,0,0,1,.66.54,1.64,1.64,0,0,1-.36,2.17,2.52,2.52,0,0,1-1.55.46,2.81,2.81,0,0,1-2.33-1.09A.54.54,0,0,1,202.06,208.37Z"/><path class="cls-3" d="M208.09,202.44a.39.39,0,0,1-.13-.33V202a.42.42,0,0,1,.14-.33.61.61,0,0,1,.38-.11c.32,0,.48.15.48.44v.12a.42.42,0,0,1-.13.33.51.51,0,0,1-.37.12A.53.53,0,0,1,208.09,202.44Zm.63,7.06a.34.34,0,0,1-.26.1.32.32,0,0,1-.25-.1.35.35,0,0,1-.11-.26v-5.52a.36.36,0,0,1,.11-.26.36.36,0,0,1,.25-.1.38.38,0,0,1,.26.1.35.35,0,0,1,.1.26v5.52A.34.34,0,0,1,208.72,209.5Z"/><path class="cls-3" d="M216,208.16a2.87,2.87,0,0,1-1.09,1.15,3.12,3.12,0,0,1-3.09,0,3,3,0,0,1-1.1-1.15,3.6,3.6,0,0,1,0-3.26,3,3,0,0,1,1.1-1.15,3.05,3.05,0,0,1,3.09,0A2.87,2.87,0,0,1,216,204.9a3.52,3.52,0,0,1,0,3.26Zm-.62-2.93a2.32,2.32,0,0,0-.83-.9,2.22,2.22,0,0,0-1.19-.33,2.15,2.15,0,0,0-1.17.33,2.43,2.43,0,0,0-.84.9,2.8,2.8,0,0,0-.3,1.3,2.72,2.72,0,0,0,.3,1.28,2.38,2.38,0,0,0,.84.91,2.15,2.15,0,0,0,1.17.33,2.21,2.21,0,0,0,2-1.22,3,3,0,0,0,0-2.6Z"/><path class="cls-3" d="M222.37,204a2.74,2.74,0,0,1,.52,1.73v3.53a.36.36,0,0,1-.36.36.34.34,0,0,1-.36-.36v-3.49a2,2,0,0,0-.39-1.27,1.46,1.46,0,0,0-1.21-.48,2.12,2.12,0,0,0-1,.24,2.21,2.21,0,0,0-.75.64,1.48,1.48,0,0,0-.28.87v3.49a.35.35,0,0,1-.11.26.32.32,0,0,1-.25.1.34.34,0,0,1-.36-.36v-5.37a.34.34,0,0,1,.36-.36.32.32,0,0,1,.25.1.35.35,0,0,1,.11.26v.66a2.69,2.69,0,0,1,2.17-1.2A2,2,0,0,1,222.37,204Z"/><path class="cls-3" d="M230,203.58a.35.35,0,0,1,.1.26v5.4a.34.34,0,0,1-.36.36.35.35,0,0,1-.26-.1.38.38,0,0,1-.1-.26v-.8a2.52,2.52,0,0,1-.9.91,2.4,2.4,0,0,1-1.31.37,2.58,2.58,0,0,1-1.44-.42,2.83,2.83,0,0,1-1-1.15,3.69,3.69,0,0,1-.37-1.64,3.51,3.51,0,0,1,.38-1.64,2.8,2.8,0,0,1,1-1.14,2.73,2.73,0,0,1,2.74-.06,2.34,2.34,0,0,1,.9.92v-.75a.4.4,0,0,1,.1-.26.36.36,0,0,1,.26-.11A.35.35,0,0,1,230,203.58Zm-1.63,5.14a2.25,2.25,0,0,0,.78-.91,2.92,2.92,0,0,0,.28-1.3,2.86,2.86,0,0,0-.28-1.28,2.28,2.28,0,0,0-.78-.9,2,2,0,0,0-1.12-.33,2.1,2.1,0,0,0-1.13.32,2.28,2.28,0,0,0-.78.9,3,3,0,0,0-.28,1.29,2.92,2.92,0,0,0,.28,1.3,2.15,2.15,0,0,0,.77.91,2.1,2.1,0,0,0,2.26,0Z"/><path class="cls-3" d="M232.69,209.5a.35.35,0,0,1-.26.1.34.34,0,0,1-.36-.36v-8.16a.35.35,0,0,1,.1-.26.38.38,0,0,1,.26-.1.34.34,0,0,1,.36.36v8.16A.38.38,0,0,1,232.69,209.5Z"/><path class="cls-3" d="M234.31,208.37a.25.25,0,0,1,.16-.24.26.26,0,0,1,.19-.08.35.35,0,0,1,.26.12,2.25,2.25,0,0,0,1.89.94,1.82,1.82,0,0,0,1-.27.89.89,0,0,0,.43-.79.85.85,0,0,0-.4-.75,3.76,3.76,0,0,0-1.1-.43,4.57,4.57,0,0,1-1.56-.66,1.35,1.35,0,0,1-.57-1.18,1.44,1.44,0,0,1,.28-.88,1.82,1.82,0,0,1,.75-.61,2.59,2.59,0,0,1,1.07-.21,3,3,0,0,1,1,.19,2.26,2.26,0,0,1,.89.63.28.28,0,0,1,.11.24.35.35,0,0,1-.12.26.38.38,0,0,1-.21.07.27.27,0,0,1-.22-.1,1.94,1.94,0,0,0-.68-.49,2.24,2.24,0,0,0-.86-.17,1.69,1.69,0,0,0-1,.27.87.87,0,0,0-.4.79.85.85,0,0,0,.43.73,4.82,4.82,0,0,0,1.22.46,5.9,5.9,0,0,1,1,.34,1.78,1.78,0,0,1,.67.54,1.55,1.55,0,0,1,.26.93,1.46,1.46,0,0,1-.63,1.24,2.49,2.49,0,0,1-1.54.46,2.8,2.8,0,0,1-2.33-1.09A.48.48,0,0,1,234.31,208.37Z"/><path class="cls-4" d="M15.9,12.25a9.53,9.53,0,0,1,3.74,3.66A10.56,10.56,0,0,1,21,21.22,11.22,11.22,0,0,1,19.55,27a10.48,10.48,0,0,1-4.14,4,12.81,12.81,0,0,1-6.07,1.45,11.93,11.93,0,0,1-3.84-.63A10.07,10.07,0,0,1,2.16,30a1.16,1.16,0,0,1-.44-.53,1.55,1.55,0,0,1-.17-.67,1.38,1.38,0,0,1,.39-.9,1.25,1.25,0,0,1,.94-.44,1.6,1.6,0,0,1,1,.41A9.73,9.73,0,0,0,6.5,29.29a8.23,8.23,0,0,0,2.83.49A10.11,10.11,0,0,0,14,28.7a7.69,7.69,0,0,0,3.16-3,8.54,8.54,0,0,0,1.1-4.38A7.4,7.4,0,0,0,16,15.7a8.35,8.35,0,0,0-6-2.11A8,8,0,0,0,7.31,14a28,28,0,0,0-2.74,1.12,4.63,4.63,0,0,1-1.42.56A1.5,1.5,0,0,1,2,15.25a1.41,1.41,0,0,1-.44-1,1.31,1.31,0,0,1,0-.37L3.54,1.33A1.44,1.44,0,0,1,4,.53,1.35,1.35,0,0,1,5,.18L18.81.11a1.31,1.31,0,0,1,1,.39,1.34,1.34,0,0,1,.39,1,1.28,1.28,0,0,1-.39.94,1.27,1.27,0,0,1-.94.4L5.94,2.89,4.42,12.41a14.27,14.27,0,0,1,2.83-1A13.76,13.76,0,0,1,10.58,11,10.74,10.74,0,0,1,15.9,12.25Z"/><path class="cls-4" d="M45,.36a1.3,1.3,0,0,1,.35.92,2.31,2.31,0,0,1-.14.65L32.71,31.47a1.57,1.57,0,0,1-.55.67,1.45,1.45,0,0,1-.78.26,1.47,1.47,0,0,1-1-.37,1.12,1.12,0,0,1-.44-.92,1.63,1.63,0,0,1,.13-.69L41.87,2.63,27.1,2.7a1.31,1.31,0,0,1-.94-.37,1.25,1.25,0,0,1-.4-1,1.22,1.22,0,0,1,.39-.92,1.3,1.3,0,0,1,.94-.37L44,0A1.31,1.31,0,0,1,45,.36Z"/><path class="cls-3" d="M182.69,172.18a9.11,9.11,0,0,1,3.6,3.48,11.33,11.33,0,0,1-.09,11,10.32,10.32,0,0,1-4,3.81,12.1,12.1,0,0,1-5.7,1.38,11.46,11.46,0,0,1-3.82-.62,8.29,8.29,0,0,1-3.14-1.92,1.36,1.36,0,0,1-.65-1.1,1.59,1.59,0,0,1,.41-1,1.27,1.27,0,0,1,1-.49,1.86,1.86,0,0,1,1.15.5,6.91,6.91,0,0,0,5.34,2,8.53,8.53,0,0,0,4.09-1,7.61,7.61,0,0,0,3-2.87,8,8,0,0,0,1.09-4.14,7.5,7.5,0,0,0-1.15-4.23,6.77,6.77,0,0,0-2.95-2.49,9.38,9.38,0,0,0-3.85-.79,8,8,0,0,0-1.42.17,8.06,8.06,0,0,1-1.11.16,1.11,1.11,0,0,1-.9-.38,1.49,1.49,0,0,1-.35-1,1.45,1.45,0,0,1,.46-1.06l8.74-9.79-12.79.06a1.31,1.31,0,0,1-.94-.37,1.25,1.25,0,0,1-.4-1,1.2,1.2,0,0,1,.39-.92,1.35,1.35,0,0,1,.94-.38l15.46-.07a1.3,1.3,0,0,1,1.08.44,1.55,1.55,0,0,1,.35,1,1.41,1.41,0,0,1-.46,1L177.6,171h.27A10,10,0,0,1,182.69,172.18Z"/><path class="cls-3" d="M196.59,189.6a13.31,13.31,0,0,1-3.78-5.89,26.55,26.55,0,0,1-1.3-8.49,26.92,26.92,0,0,1,1.2-8.51,13,13,0,0,1,3.73-5.91,9.82,9.82,0,0,1,12.28-.07,13,13,0,0,1,3.8,5.87,29.26,29.26,0,0,1,.07,17,13.1,13.1,0,0,1-3.74,5.92,9.08,9.08,0,0,1-6.13,2.19A9,9,0,0,1,196.59,189.6Zm12.19-4.45c1.42-2.47,2.11-5.81,2.1-10s-.75-7.58-2.19-10a6.82,6.82,0,0,0-12.14.05q-2.13,3.72-2.1,10.06t2.19,10a6.83,6.83,0,0,0,12.14-.06Z"/></g></g></svg>