<svg xmlns="http://www.w3.org/2000/svg" viewBox="0 0 293.75 60.42"><defs><style>.cls-1{fill:#f5f5f5;}.cls-2{fill:#e86b05;}.cls-3{fill:#575756;}.cls-4{fill:#ddd;}.cls-5{fill:#919191;}.cls-6{fill:#afafac;}</style></defs><title>Asset 8</title><g id="Layer_2" data-name="Layer 2"><g id="Navigation"><polygon class="cls-1" points="50.5 45.02 50.5 15.4 25.5 0.58 0.5 15.4 0.5 45.02 25.5 59.84 50.5 45.02"/><path class="cls-2" d="M25.5,60.42,0,45.31V15.11L25.5,0,51,15.11v30.2ZM1,44.74,25.5,59.26,50,44.74V15.68L25.5,1.16,1,15.68Z"/><path class="cls-3" d="M32.15,31.36c-.18,0-.24.12-.27.25a4.31,4.31,0,0,0-.11.49l-.66,3H31c-.25-1.1-.5-2.2-.76-3.3-.05-.21-.06-.49-.39-.5s-.38.28-.43.53-.17.74-.25,1.1c-.19.9-.38,1.8-.56,2.7,0,.14-.11.36.12.41s.25-.15.29-.31l.12-.55.64-3a.52.52,0,0,1,.23.43l.69,3c.05.22.11.42.39.43s.34-.21.39-.42c.29-1.33.57-2.66.85-4C32.31,31.57,32.35,31.4,32.15,31.36Z"/><path class="cls-3" d="M28.49,31.37c-.24-.05-.26.16-.3.31-.29,1.35-.58,2.71-.88,4.09,0,.1-.07.28.13.31s.28-.21.32-.38c.29-1.3.56-2.61.83-3.92C28.63,31.63,28.73,31.43,28.49,31.37Z"/><path class="cls-3" d="M19.6,31.31c.31,0,.71.13.82-.4.36-1.74.73-3.49,1.1-5.23,0-.13.1-.27-.06-.38a1.06,1.06,0,0,0-1.39.53c-.34,1.61-.66,3.22-1,4.82C18.91,31.19,19,31.41,19.6,31.31Z"/><path class="cls-3" d="M17.86,28.33c.22-.16.4-.26.56-.4A2,2,0,0,0,19,26c-.26-.68-.87-.71-1.47-.72s-1,0-1.55,0-.66.14-.75.6c-.31,1.6-.67,3.18-1,4.77,0,.22-.33.63.17.65s1,.35,1.16-.37c.14-.55.28-1.1.37-1.65s.29-.49.63-.45.45.3.42.61-.12.69-.17,1c-.12.85-.1.84.77.86.48,0,.66-.1.64-.61a5.33,5.33,0,0,1,.17-1.18C18.46,29,18.44,28.58,17.86,28.33Zm-1.29-.53c-.22,0-.41-.1-.28-.33.22-.41-.16-1.2.71-1.2.4,0,.59.24.55.65A.91.91,0,0,1,16.57,27.8Z"/><path class="cls-3" d="M13,25.2a2.39,2.39,0,0,0-2.85,1.51,9.88,9.88,0,0,0-.65,2.91c0,.72,0,1.3.69,1.61a2.44,2.44,0,0,0,3.08-1,8.1,8.1,0,0,0,.87-3.75A1.21,1.21,0,0,0,13,25.2ZM12.71,27a15.74,15.74,0,0,1-.55,2.61,2.26,2.26,0,0,1-.13.33c-.14.31-.35.59-.74.51S11,30,11,29.63a15.37,15.37,0,0,1,.65-2.89c.13-.36.34-.73.81-.59S12.74,26.67,12.71,27Z"/><path class="cls-3" d="M9.4,26.63a2.26,2.26,0,0,0,.37-.82c.1-.39.05-.56-.4-.55-.85,0-1.7,0-2.54,0-.64,0-.57.47-.62.83s.38.29.61.31a10.46,10.46,0,0,0,1.14,0c-1,1.58-2.24,2.82-3,4.36v.57c1.08,0,2.16,0,3.25,0,.63,0,.53-.5.57-.85s-.33-.28-.54-.3c-.42,0-.83,0-1.26,0a1.19,1.19,0,0,1,.35-.69C8,28.52,8.69,27.57,9.4,26.63Z"/><path class="cls-3" d="M41.88,31.23a1.65,1.65,0,0,0-1.7.89,6.19,6.19,0,0,0-.75,2.63c0,.6.11,1.12.67,1.36a1.45,1.45,0,0,0,1.57-.31,1.87,1.87,0,0,0,.4-.49c.12-.24.44-.58.19-.73s-.36.29-.51.48-.18.28-.29.4a1,1,0,0,1-1,.34.81.81,0,0,1-.55-.89,5.23,5.23,0,0,1,.69-2.7,1.08,1.08,0,0,1,1.11-.6c.46.06.62.37.66.78,0,.12,0,.25.19.26s.21-.13.24-.28A1,1,0,0,0,41.88,31.23Z"/><path class="cls-3" d="M39.14,31.38c-.3-.05-.26.32-.31.53-.24,1.08-.47,2.15-.71,3.25-.24-.14-.22-.35-.26-.53-.22-.91-.42-1.83-.64-2.75,0-.23,0-.55-.41-.55s-.37.31-.42.55q-.41,1.83-.78,3.66c0,.17-.23.47.07.53s.3-.28.35-.49c.25-1.12.48-2.23.72-3.34a31.15,31.15,0,0,1,.87,3.21c.07.26,0,.68.46.66s.37-.44.43-.7c.27-1.15.51-2.3.73-3.45C39.28,31.76,39.5,31.43,39.14,31.38Z"/><path class="cls-3" d="M44.33,33.76a1.54,1.54,0,0,0,1.16-.2,4,4,0,0,0-1.32-.13c-.16,0-.34,0-.44-.14-.27-.48.41-1.62,1-1.65a2.49,2.49,0,0,0,1.38-.19,6.58,6.58,0,0,0-1.77-.14c-.48,0-.72.14-.8.63-.13.79-.32,1.57-.49,2.35-.41,2-.41,2,1.57,1.84.17,0,.45.07.47-.18s-.27-.17-.44-.2h-.21c-1.29,0-1.26,0-1-1.3C43.53,33.89,43.79,33.73,44.33,33.76Z"/><path class="cls-3" d="M35.88,24c.06-.52.28-1,0-1.56h0c0-.14-.09-.29-.14-.43h0a.64.64,0,0,0-.3-.4h0L35,21.33h0l-.26-.17H33.62l-.57.25a.09.09,0,0,0,0,.05h0v-.05a1.89,1.89,0,0,0-.86.3,1.84,1.84,0,0,0-1,.44,2.75,2.75,0,0,0-1,.56,5.57,5.57,0,0,0-1.71,1.12c-.22,0-.32.17-.47.28-.74.54-1.33,1.37-2.43,1.17-.37-.06-.36.31-.41.55-.23,1-.44,2-.65,3a26.75,26.75,0,0,1-.36-2.92c0-.32,0-.74-.5-.64s-1.16-.38-1.31.57-.45,2.07-.64,3.11a7,7,0,0,1-1.32,3.28,7.2,7.2,0,0,0-1.23,2.2,1.64,1.64,0,0,0-.42,1,2,2,0,0,0-.31,1h0c-.11.49-.4,1-.14,1.47l.13.43h0l.21.38A.54.54,0,0,0,19,39l.3.13h0A3,3,0,0,0,21.45,39h0a2.69,2.69,0,0,0,1.69-.84,20.47,20.47,0,0,1-2.53.29h-.43l-.43-.14h0l-.41-.44-.15-.28L19.06,37c0-.33.07-.65.11-1l.18-.86h0a3.42,3.42,0,0,0,.54-1.27l1.35-2.15c.15-.25.32-.46.66-.42s.65-.17.73-.62c.19-1.05.44-2.1.67-3.14h.12l.33,3.62c.21.24.48.15.73.15.85,0,.85,0,.67.88-.23,1.13-.48,2.25-.71,3.38,0,.16-.18.42.08.49s.3-.22.34-.42c.1-.43.21-.87.28-1.31a.59.59,0,0,1,.7-.59,2.65,2.65,0,0,0,1.35-.15A2.66,2.66,0,0,0,26,33.43c-.18,0-.45.06-.5-.15a2.56,2.56,0,0,1,.21-1.36c.09-.35.4-.25.64-.27a2.74,2.74,0,0,0,1.27-.17,3.74,3.74,0,0,0-1.48-.17c-.26,0-.58.11-.72-.26.23-1.1.52-2.19.69-3.3a3.74,3.74,0,0,1,1.7-3,5.06,5.06,0,0,0,.88-.68L30,23.26c.34,0,.57-.27.84-.43a4.51,4.51,0,0,0,1.27-.56.91.91,0,0,0,.58-.14l.55-.12h.57l.12,0a3.18,3.18,0,0,1,.88.4l.29.42c0,.19.09.38.13.57h0c0,.29,0,.57,0,.86A8.89,8.89,0,0,0,34.75,26a3.73,3.73,0,0,0-.61,1.58,3.93,3.93,0,0,0,1-1.72A10.77,10.77,0,0,0,35.88,24Z"/><path class="cls-3" d="M35,35.23c-.08-.94-.12-1.83-.24-2.71-.06-.4.21-1-.36-1.15s-.58.57-.78.93c-.6,1.12-1.16,2.26-1.73,3.39-.05.11-.2.26,0,.37s.3,0,.39-.16a.82.82,0,0,0,.12-.25c.22-.87.84-1,1.62-.93.36,0,.55.12.59.52s-.16.85.25.82S34.9,35.48,35,35.23Zm-1-.9c-.28,0-.64.12-.81-.08s.11-.51.21-.75c.25-.55.52-1.08.79-1.62l.14,0c0,.66.06,1.31.11,2C34.53,34.23,34.38,34.35,34.06,34.33Z"/><polygon class="cls-4" points="111.69 45.02 111.69 15.4 86.69 0.58 61.69 15.4 61.69 45.02 86.69 59.84 111.69 45.02"/><path class="cls-5" d="M83.6,32.05a2.71,2.71,0,0,0-.68-.26,1.22,1.22,0,0,0-1.31,1.53,1.34,1.34,0,0,0,1,1H83l.6-.35,0,.25h.72V31.85h-.72Zm0,1.26a.63.63,0,0,1-1.2-.27.66.66,0,0,1,.06-.25.59.59,0,0,1,.56-.38.75.75,0,0,1,.26.05.63.63,0,0,1,.37.6A.7.7,0,0,1,83.55,33.31Z"/><path class="cls-5" d="M89.42,32.83c.23-.3.43-.63.69-1a2.88,2.88,0,0,1-.42,0,.58.58,0,0,0-.67.35c-.14.27-.33.51-.49.76l-.08,0V30.74h-.74v3.51h.76V33.19a1.42,1.42,0,0,1,.37.46.94.94,0,0,0,1.28.57c-.23-.33-.45-.66-.69-1A.29.29,0,0,1,89.42,32.83Z"/><path class="cls-5" d="M80.58,32.45a.82.82,0,0,0,.43-.93.7.7,0,0,0-.62-.6c-.63-.05-1.27,0-1.89,0v3.37h1.78a1.1,1.1,0,0,0,1-.57C81.48,33.19,81.25,32.74,80.58,32.45Zm-.6-.92c.11,0,.27.23.26.33a.53.53,0,0,1-.31.33,2.56,2.56,0,0,1-.62,0c0-.05,0-.07,0-.09C79.2,31.5,79.38,31.33,80,31.53Zm.12,2.1c-.27,0-.53,0-.82,0v-.79a7.53,7.53,0,0,1,.83,0c.22,0,.4.13.4.39A.4.4,0,0,1,80.1,33.63Z"/><path class="cls-5" d="M81.93,28.4c0-.35.16-.53.43-.53s.42.17.42.53v1.28h.76c0-.58,0-1.13,0-1.68a.74.74,0,0,0-.84-.77,3.76,3.76,0,0,0-.78.23V26.17h-.72v3.52h.74C81.93,29.24,81.92,28.82,81.93,28.4Z"/><path class="cls-5" d="M79.7,29.77a1.18,1.18,0,0,0,1.14-1c0-.55-.25-.9-.93-1.09a3.35,3.35,0,0,1-.56-.19.36.36,0,0,1-.16-.31.38.38,0,0,1,.24-.24.37.37,0,0,1,.48.19c0,.07.13.16.21.17a5.22,5.22,0,0,0,.56,0,2,2,0,0,0-.06-.32,1,1,0,0,0-1.09-.7,1,1,0,0,0-1.14.9c-.07.54.2.89.85,1.07a3.06,3.06,0,0,1,.56.18.5.5,0,0,1,.22.34.49.49,0,0,1-.23.34.48.48,0,0,1-.66-.23c0-.07-.11-.16-.17-.16a6.2,6.2,0,0,0-.62,0c0,.13,0,.23,0,.32A1.18,1.18,0,0,0,79.7,29.77Z"/><path class="cls-5" d="M85.88,29.44l.07.25h.69v-2.4h-.72a2.17,2.17,0,0,0,0,.25,1.45,1.45,0,0,0-.88-.32,1.12,1.12,0,0,0-.77.35A1.18,1.18,0,0,0,84,28a1.86,1.86,0,0,0-.09.47,1.34,1.34,0,0,0,.28.89A1.19,1.19,0,0,0,85.88,29.44Zm-.63-1.59a.6.6,0,0,1,.64.62.62.62,0,1,1-1.23,0A.6.6,0,0,1,85.25,27.85Z"/><path class="cls-5" d="M68.76,26.08v8.26H77c0-.79,0-1.59,0-2.38,0-2,0-3.92,0-5.88Zm5.84,4a4,4,0,0,0,.17.44c.21.61,0,.89-.63,1,0,.55.53.35.8.54a2,2,0,0,1-.82,1.46c-.17.12-.49,0-.75,0a.28.28,0,0,1-.06-.2.3.3,0,0,1,.19-.14c.51-.07.51-.06.61-.58,0,0,0,0,0,0-.7-.13-.7-.13-.71-.85,0-.21,0-.42-.06-.63a1,1,0,0,0-.06-.16.52.52,0,0,0-.26.83c.17.27.06.4-.14.52a2.92,2.92,0,0,1-.54.25c-.19.08-.42.07-.5.32,0,0-.1.08-.12.06a2.35,2.35,0,0,1-.45-.3s0-.18.09-.27.18-.4.48-.18c.08.06.36-.16.55-.25-.12-.22-.23-.37-.3-.54-.14-.37-.1-.43.24-.61a2.67,2.67,0,0,1,.36-.14c.12-.05.24-.08.44-.14l-.45-.37-.4-.36-1.06.11s-.09,0-.11,0c-.3.35-.44,0-.6-.16a.29.29,0,0,1,0-.27c.14-.1.21-.43.43-.25s.64.06,1,0a1,1,0,0,0,.24-.15l-.67-.87a.2.2,0,0,0-.06-.07c-.09,0-.25-.08-.26-.14a.9.9,0,0,1,.06-.43c.1-.27.33-.07.49-.1s.21.15.2.19c-.1.35.15.49.36.65s.46.24.68-.19l-.38.06-.32-.45.62.06v-.11h-.37c-.15-.35-.13-.4.19-.51.13,0,.26,0,.38-.08l.35-.14A1,1,0,0,1,74,28.05a7.16,7.16,0,0,1-.41.95.47.47,0,0,0,0,.31c.17.56.37,1.11.52,1.67,0,.18.11.27.29.24a.27.27,0,0,0,.23-.35,2.24,2.24,0,0,0-.14-.36,5.43,5.43,0,0,1-.22-.86,1.07,1.07,0,0,1,.91-1.16c-.13.3-.13.62-.41.84A.67.67,0,0,0,74.6,30.11Z"/><path class="cls-5" d="M86.73,31.85a.89.89,0,0,0-1,.21s0,0-.09,0l0-.26h-.69v2.42h.73c0-.13,0-.24,0-.35,0-.29,0-.58,0-.87a1.12,1.12,0,0,1,0-.32.38.38,0,0,1,.43-.29.37.37,0,0,1,.37.39v1.42h.76V32.73A.8.8,0,0,0,86.73,31.85Z"/><path class="cls-5" d="M97.5,27.23a1.26,1.26,0,0,0-1.36,1.26,1.37,1.37,0,0,0,2.73,0A1.25,1.25,0,0,0,97.5,27.23Zm0,1.9a.61.61,0,0,1-.62-.65.61.61,0,1,1,1.21,0A.6.6,0,0,1,97.52,29.13Z"/><path class="cls-5" d="M104,28.77a.39.39,0,0,1,0-.59c.21-.27.39-.57.62-.91a2.1,2.1,0,0,1-.36,0,.65.65,0,0,0-.76.41c-.13.25-.31.47-.46.7l-.08,0V26.17h-.74v3.51h.74V28.63H103l.45.66a.82.82,0,0,0,1.14.36C104.4,29.35,104.21,29,104,28.77Z"/><path class="cls-5" d="M95.13,27.66l0-.35h-.67V29.7a3.61,3.61,0,0,1,.47,0c.21,0,.28-.07.27-.28a5.42,5.42,0,0,1,0-.57c0-.7,0-.75.73-.87l0,0v-.68A.77.77,0,0,0,95.13,27.66Z"/><path class="cls-5" d="M90.62,27.28c-.27,0-.39.07-.44.34a10.72,10.72,0,0,1-.28,1.08,10.92,10.92,0,0,1-.51-1.19.41.41,0,0,0-.14-.21.52.52,0,0,0-.72.32l-.39,1.07a10.55,10.55,0,0,1-.4-1.2c0-.08-.11-.19-.17-.19a4.18,4.18,0,0,0-.62,0c.24.75.47,1.46.68,2.17.05.17.12.27.31.25s.44.09.54-.24.31-.81.47-1.22H89c.17.42.34.84.5,1.27s.35.16.53.16a.35.35,0,0,0,.26-.2c.13-.35.24-.72.35-1.08s.23-.73.35-1.13A2.52,2.52,0,0,1,90.62,27.28Z"/><path class="cls-5" d="M100.5,27.23a1.24,1.24,0,0,0-1.37,1.24,1.36,1.36,0,0,0,2.72,0A1.25,1.25,0,0,0,100.5,27.23Zm0,1.9a.6.6,0,0,1-.58-.66.57.57,0,0,1,.6-.62.59.59,0,0,1,.61.63A.61.61,0,0,1,100.47,29.13Z"/><path class="cls-5" d="M93.18,27.26a1,1,0,0,0-1.13.36V26.17H91.3v3.52H92l0-.28a1.18,1.18,0,0,0,1.64,0,1.32,1.32,0,0,0,.15-1.7A1.63,1.63,0,0,0,93.18,27.26Zm-.49,1.87a.63.63,0,0,1-.63-.65.62.62,0,1,1,1.24,0A.63.63,0,0,1,92.69,29.13Z"/><polygon class="cls-4" points="233.06 45.02 233.06 15.4 208.06 0.58 183.06 15.4 183.06 45.02 208.06 59.84 233.06 45.02"/><path class="cls-6" d="M198.87,34.13c-.44.18-1.18-.17-1.36.74-.3,1.56-.68,3.11-1,4.66,0,.2-.2.49.16.55s.65.16.8-.26a2.1,2.1,0,0,0,.09-.42c.06-.83.32-1.26,1.33-1.23a2.13,2.13,0,0,0,2-2.38C200.85,34.72,200.13,34.12,198.87,34.13Zm.42,3a1,1,0,0,1-1,.2c-.39-.21-.07-.56-.06-.84a2.78,2.78,0,0,1,.15-.75c.11-.37,0-.94.7-.82a.92.92,0,0,1,.82,1A1.48,1.48,0,0,1,199.29,37.17Z"/><path class="cls-6" d="M202.64,32.43a.63.63,0,0,0-.65.64.53.53,0,0,0,.55.61.7.7,0,0,0,.72-.69A.57.57,0,0,0,202.64,32.43Z"/><path class="cls-6" d="M196,34.25a2.52,2.52,0,0,0-2.06.24c-.16.09,0,.31,0,.47s.22.15.35.11a2.06,2.06,0,0,1,1-.12.47.47,0,0,1,.43.46c0,.29-.28.21-.46.23a2.83,2.83,0,0,0-1.54.42,1.23,1.23,0,0,0-.43,1.66c.29.6.87.6,1.42.42.36-.11.65-.52,1,0,.09.12.62,0,.62-.36,0-.78.29-1.5.4-2.38A1.09,1.09,0,0,0,196,34.25Zm-.48,2.43a1.06,1.06,0,0,1-1,.74.37.37,0,0,1-.41-.43c.13-.6.66-.6,1.13-.65C195.41,36.32,195.52,36.43,195.47,36.68Z"/><path class="cls-6" d="M192.77,33.6c.3.06.53.19.62-.26s-.1-.53-.42-.59-.56-.07-.7-.09A3.32,3.32,0,0,0,188.89,35a2.4,2.4,0,0,0,.54,2.67,2.53,2.53,0,0,0,2.71.45c.31-.08.65-.18.54-.62s-.49-.2-.75-.15a1.55,1.55,0,0,1-2-1.85A2.16,2.16,0,0,1,192.77,33.6Z"/><path class="cls-6" d="M205.4,34.24c-.45,0-.44-.25-.36-.58,0-.13.15-.34-.08-.42a.64.64,0,0,0-.71.15c-.27.39-.38.88-1,1-.11,0-.32.49.08.59s.32.38.27.64-.16.73-.24,1.09-.28,1,.2,1.34a1.57,1.57,0,0,0,1.54,0c.24-.09.4-.21.29-.51a.32.32,0,0,0-.46-.22c-.21.06-.58.12-.56-.15a10.61,10.61,0,0,1,.31-1.83c.08-.39.41-.32.69-.33a.48.48,0,0,0,.47-.51C205.91,34.1,205.57,34.24,205.4,34.24Z"/><path class="cls-6" d="M210.89,23.51c-.62,0-.86.46-1,1-.08.32,0,.47.36.51s.72-.19.67.34a.65.65,0,0,1-.79.68c-.47-.06-.56.27-.62.63a17.75,17.75,0,0,1-.81,3.66c-.16.42,0,.49.39.42,3.26-.56,5.1-5.08,3.07-7.92C212,23.67,211.48,23.55,210.89,23.51Z"/><path class="cls-6" d="M206.43,30.76a.73.73,0,0,0,1-.51,7.11,7.11,0,0,0,.51-1.8,4.37,4.37,0,0,0,.3-1.56c.05-.45.4-1-.49-1.08-.2,0-.17-.26-.15-.43A.36.36,0,0,1,208,25c.44,0,.57-.25.64-.62a10.4,10.4,0,0,1,.31-1.09,1.81,1.81,0,0,1-1.11.59,1.69,1.69,0,0,0-1.43,1.49,1.36,1.36,0,0,0,.65,1.67c.63.16,1.16.38.7,1.19a2.14,2.14,0,0,1-2.45-1.11,3,3,0,0,1,.42-3.2,3.11,3.11,0,0,1,2.88-1.13c.29,0,.35.22.36.46a2.8,2.8,0,0,1,2.94-.72.45.45,0,0,0-.14-.46A5.31,5.31,0,0,0,202.46,26,5.39,5.39,0,0,0,206.43,30.76Z"/><path class="cls-6" d="M202.49,34.23c-.33,0-.61,0-.7.42-.2,1-.42,2-.64,3,0,.22-.15.49.22.51s.62.14.72-.25c.27-1.1.5-2.21.74-3.31C202.89,34.3,202.72,34.24,202.49,34.23Z"/><path class="cls-6" d="M219.63,34.14a2.21,2.21,0,0,0-2.19,2.24,1.55,1.55,0,0,0,1.6,1.85A2.2,2.2,0,0,0,221.29,36,1.58,1.58,0,0,0,219.63,34.14Zm-.48,3.28c-.58-.07-.73-.49-.73-1,0-.82.52-1.51,1.12-1.48s.76.49.75,1C220.26,36.84,219.76,37.48,219.15,37.42Z"/><path class="cls-6" d="M217.12,32.32c-.31,0-.65-.08-.74.36-.33,1.53-.67,3.06-1,4.6a2.82,2.82,0,0,0,.1.58c.14.35.47.38.79.36s.54,0,.67-.28.11-.46-.09-.53c-.56-.19-.35-.56-.28-.9.25-1.2.52-2.4.76-3.6C217.37,32.7,217.56,32.37,217.12,32.32Z"/><path class="cls-6" d="M226.12,34.92c-.2.54-.48,1.06-.73,1.59l-.16,0c-.07-.55-.14-1.1-.23-1.64,0-.24,0-.54-.36-.6s-.5.17-.63.44c-.3.62-.61,1.23-.92,1.84a7.71,7.71,0,0,1-.43-1.9c0-.42-.33-.38-.62-.39s-.37.24-.32.52c.16,1,.3,1.91.46,2.87,0,.23,0,.53.38.57a.62.62,0,0,0,.67-.4c.31-.63.65-1.24,1.07-2,.13.8.22,1.39.31,2,0,.23.07.45.4.45a.54.54,0,0,0,.56-.29c.6-1.18,1.23-2.36,1.85-3.56A.86.86,0,0,0,226.12,34.92Z"/><path class="cls-6" d="M215.3,33.2c.36.1.44-.2.51-.43s-.2-.35-.4-.4a2.15,2.15,0,0,0-.44-.06,1.68,1.68,0,0,0-1.73,1.33c-.09.27-.1.51-.47.62s-.65.49-.07.77a.35.35,0,0,1,.24.45,7.39,7.39,0,0,1-1.13,3.46c-.21.28-.44.51,0,.84s.61-.05.8-.28a6.74,6.74,0,0,0,1.3-3.56c.08-.5.08-1,.8-.93.31,0,.41-.3.42-.55s-.28-.22-.45-.22c-.53,0-.47-.32-.33-.63A.73.73,0,0,1,215.3,33.2Z"/><path class="cls-6" d="M211.35,37.42c-.59-.23-.33-.64-.26-1,.24-1.17.51-2.34.74-3.51,0-.21.23-.54-.21-.59s-.65-.08-.75.35l-1,4.65a3,3,0,0,0,.11.53c.13.36.46.39.78.37s.54,0,.67-.27S211.55,37.5,211.35,37.42Z"/><path class="cls-6" d="M207.89,34.14c-.22,0-.61.13-1,.23s-.25.26-.21.47.22.27.44.22a4.86,4.86,0,0,1,.84-.12.47.47,0,0,1,.54.43c0,.37-.31.25-.5.27a2.83,2.83,0,0,0-1.46.4,1.22,1.22,0,0,0-.47,1.65c.33.67,1,.65,1.55.39.34-.15.55-.37.89.05.12.16.65.07.66-.38a12.56,12.56,0,0,1,.33-1.93C209.67,34.7,209.18,34.13,207.89,34.14Zm-.53,3.29a.39.39,0,0,1-.45-.4c.06-.59.57-.6,1-.69.2,0,.4,0,.42.25A1.12,1.12,0,0,1,207.36,37.43Z"/><polygon class="cls-4" points="172.38 45.02 172.38 15.4 147.38 0.58 122.38 15.4 122.38 45.02 147.38 59.84 172.38 45.02"/><path class="cls-6" d="M134,27.94a3.71,3.71,0,0,0-3-2.23A4.08,4.08,0,0,1,134,27.94Z"/><path class="cls-6" d="M144.56,27a4.25,4.25,0,0,0-2.35,1.34l0,0A4.84,4.84,0,0,1,143.92,27a4.1,4.1,0,0,0-1.74,1.16,2.14,2.14,0,0,0-1.91-1.36,2.84,2.84,0,0,0-2,1v-.11a3.27,3.27,0,0,1,1.33-.82,3.06,3.06,0,0,0-1.34.65s0-.39-.05-.52-.1-.27-.29-.27-.2-.2-.3-.28c0,.08,0,.49,0,.57-.1-.12-.06-.23-.14-.64v0a.89.89,0,0,1-.05.23.94.94,0,0,1-.07-.36v.07c0,.17,0,.57,0,.74v.07c0,.06-.06-.65-.14-.76,0,.06,0,.11-.06.17s-.2-.23-.32-.26-.14.32-.2.36-.07-.15-.13-.15-.22-.09-.34-.09h-.09c-.11,0-.28.14-.28.71,0,1,0,6.2.06,6.71,0,.16.14.27.36.27a.61.61,0,0,0,.42-.29c.08,0,.17.08.32.08a5.74,5.74,0,0,0,.81.18c.34,0,.31-.23.37-.32.25,0,.34-.26.34-.4,0-.61,0-2.14-.14-4.6a2.76,2.76,0,0,0,.75-.3,1.52,1.52,0,0,1,.93,1.14c0,.74,0,2,.06,2.65a4.67,4.67,0,0,0,.32,1.46,1,1,0,0,1,.34-.7c0,.08.2.09.24.09.25,0,.29-.11.54-.3.1.09.41.12.55.38a1.67,1.67,0,0,0,.33-.9V29.84c.28-.65.74-1,1-1h.12c.34,0,.76.05.76,1s-.48,2.64-.48,3.27c0,.08.13.18.22.21l.17,0a.29.29,0,0,0,.22.17s0,.09.09.21a2,2,0,0,1,.18-.32,1.76,1.76,0,0,1,.05.53,1.08,1.08,0,0,0,.12-.15c0,.11,0,.17,0,.29v.11c0-.14.23-1.25.26-1.41v0c0,.17-.12,1-.13,1.18a.88.88,0,0,1,.1-.28.32.32,0,0,1,0,.14v.07a.71.71,0,0,1,.14-.29.22.22,0,0,1,0,.08v.12l.08-.09a1.22,1.22,0,0,0,0,.17.9.9,0,0,0,0-.28s0,.1.08.1h.06a.83.83,0,0,0,.22,0c.18,0,.21-.15.36-.59a11.71,11.71,0,0,0,.54-3.3C146.72,27.85,146.18,27,144.56,27Zm-2.32,1.43v0a5.7,5.7,0,0,1,1.84-1.27A7.64,7.64,0,0,0,142.24,28.38Z"/><path class="cls-6" d="M134.6,33.89a2.69,2.69,0,0,1-.7-1.23c0-.32.21-2.67.21-3.76,0-1.95-2.31-3.16-3.74-3.16a1.18,1.18,0,0,0-.74.15.59.59,0,0,1,.43.13,3.7,3.7,0,0,0-.78.12,1,1,0,0,1,.32,0c-.22,0-.59.26-.59.86a.56.56,0,0,0,.38.6c1.51,0,2.55.68,2.55,1.8,0,.09,0,.21,0,.33a.59.59,0,0,0-.16-.12l-.1-.06a1.43,1.43,0,0,0-.26,0,.42.42,0,0,0-.28-.14c-.32,0-3.07.43-3.07,2.28s.78,3,2.74,3a.56.56,0,0,0,.52-.35,2.7,2.7,0,0,1,.44-.24,1.29,1.29,0,0,1,.14-.41,3.58,3.58,0,0,0,1.62,1.2c.06,0,.41,0,.52-.18a.41.41,0,0,1,.16,0s-.23-.15-.35-.24c.11,0,.52.26.57.26s-.25-.15-.29-.18a.83.83,0,0,1,.21.06.54.54,0,0,0-.11-.14,2,2,0,0,1,.4-.05c0-.06-.08-.07-.12-.12.2,0,.27,0,.27,0A.46.46,0,0,0,134.6,33.89Zm-2.75-3a3.54,3.54,0,0,0-1.85.72,3.26,3.26,0,0,1,1.84-.64c-.05.53-.08,1.11-.11,1.68a5.87,5.87,0,0,0-1.36.41,1.69,1.69,0,0,1-.52-1.21,2.31,2.31,0,0,1,2-1Zm0-.14a4.27,4.27,0,0,0-1.41.4,3.43,3.43,0,0,1,1.42-.49Z"/><path class="cls-6" d="M157.64,25.91c0-.23-.26-.6-.55-.6a7.4,7.4,0,0,1-.76.11,2.37,2.37,0,0,1-.6-.2c0,.35.09,1.67.09,1.9v0s-.24-.11-.29-.17,0-.15.07-.18-.26-.1-.37-.1a.75.75,0,0,0,.17-.27,1.53,1.53,0,0,0-.66-.12c-1.64,0-3.15,2-3.15,3.77A3.76,3.76,0,0,0,155.44,34c.48,0,.92-.64.92-.72l.06,0a1.87,1.87,0,0,1,.08.53c0,.11,0,.23,0,.36,0,.56-.2,1.17-2.38,1.17-.89,0-.78-.18-1.25-.18-.29,0-.37.2-.55.2a1.59,1.59,0,0,0,.74.59,2,2,0,0,1-.73-.16,2.78,2.78,0,0,0,1.07.35,2.89,2.89,0,0,1-1-.17,1.5,1.5,0,0,0,.42.2.52.52,0,0,1-.21,0,1.1,1.1,0,0,0,.51.11,1,1,0,0,1-.33.06c.05.12,0,.83,1.61.83,2.6,0,4.28-1.38,4.28-3.55a56.37,56.37,0,0,0-.64-7C158,26.17,157.77,25.91,157.64,25.91Zm-3.73,4.26a3.72,3.72,0,0,1,2-2.43c.11,1.19.26,2.86.41,4.43C155.21,31.73,153.91,31.15,153.91,30.17Z"/><path class="cls-6" d="M162.06,26.41a.4.4,0,0,0,.21.35,2.07,2.07,0,0,0-.39.25,2,2,0,0,0,.42.52c-.3.06-2.67,1.45-2.67,3.39a2.6,2.6,0,0,0,2.52,2.87c-.05.06-.17.11-.56.11a1.39,1.39,0,0,0,.55.11.88.88,0,0,1-.59.15.83.83,0,0,0,.25,0,1.6,1.6,0,0,0,.66-.11.66.66,0,0,1-.43.53.87.87,0,0,0,.46.11,1,1,0,0,0,.47-.2c0,.14,0,.38.28.38a3.82,3.82,0,0,0,3.45-4A4.61,4.61,0,0,0,162.06,26.41Zm.35,6.82c-.67-.11-.86-1.39-.87-2.39.4-.85,1.56-1.62,1.73-2.56a4.36,4.36,0,0,1,1.19,1.79,4,4,0,0,0-1.18-1.91v-.11a3.24,3.24,0,0,1,1.25,2.67C164.53,32.13,163.2,32.77,162.41,33.23Z"/><path class="cls-6" d="M154,30.08a5,5,0,0,1,1.71-2.17A4,4,0,0,0,154,30.08Z"/><path class="cls-6" d="M148.11,33.58c0-.87-.19-5.39-.22-5.62C147.89,29,148.05,32.6,148.11,33.58Z"/><path class="cls-6" d="M150.05,23.72c-.28-.23-.44-.52-.78-.52-1.1,0-1.54.33-1.54,1.59,0,.65.55.86,1.34.86a1.42,1.42,0,0,0,1.5-1.25C150.57,23.94,150.31,23.94,150.05,23.72Z"/><path class="cls-6" d="M150.11,27.19a1,1,0,0,0-.43.11c-.17-.11-.38-.66-.88-.66-.19.05-.31.29-.52.29s-.28.14-.28.71c0,1.28.15,6.4.2,6.9a.31.31,0,0,0,.35.28c.15,0,.34-.42.4-.54l.46.09c.07-.09.17-.24.2-.29s.09.22.15.29,0-.12,0-.13,0,.24.07.29c0-.11,0-.6,0-.61s.22.41.28.58a2,2,0,0,1,.09-.39.26.26,0,0,0,.26-.24c0-3-.09-6.11-.14-6.4C150.38,27.41,150.29,27.19,150.11,27.19Z"/><polygon class="cls-4" points="293.75 45.02 293.75 15.4 268.75 0.58 243.75 15.4 243.75 45.02 268.75 59.84 293.75 45.02"/><path class="cls-6" d="M251.78,28.74h2.44c0,.66-2.57,2.28-2.57,4.05v.29h5.17V31.64h-2.44c0-.66,2.57-2.28,2.57-4.05V27.3h-5.17Z"/><path class="cls-6" d="M283.53,27.3h-2l-2.44,5.78h2l.29-.82h2.15l.29.82h2Zm-1.65,3.59.62-1.69.58,1.69Z"/><path class="cls-6" d="M273.57,27.3H271v5.78h1.82V31.6h.79a2.09,2.09,0,0,0,2.35-2.2C275.92,28,275.05,27.3,273.57,27.3Zm.53,2.1a.62.62,0,0,1-.53.71h-.83V28.74h.7a.6.6,0,0,1,.66.54Z"/><path class="cls-6" d="M263.81,27.25a3,3,0,0,0-3.18,2.94,3.19,3.19,0,1,0,3.18-2.94Zm0,4.3h0a1.32,1.32,0,0,1-1.24-1.36,1.28,1.28,0,0,1,1.2-1.36h0a1.22,1.22,0,0,1,1.2,1.28v.08A1.23,1.23,0,0,1,263.85,31.55Z"/></g></g></svg>