<svg xmlns="http://www.w3.org/2000/svg" viewBox="0 0 56.44 57.02"><defs><style>.cls-1{fill:#bebebe;}.cls-2{fill:#898482;}.cls-3{fill:#a5a1a0;}</style></defs><title>pollen-1</title><g id="Layer_2" data-name="Layer 2"><g id="_1_COL" data-name="1 COL"><polygon class="cls-1" points="18.43 8.88 9.85 8.88 5.55 16.32 9.85 23.75 18.43 23.75 20.58 20.04 22.72 16.32 18.43 8.88"/><polygon class="cls-1" points="28.22 24.44 28.22 17.01 23.93 17.01 21.78 20.73 19.64 24.45 21.78 28.16 28.22 24.44"/><polygon class="cls-1" points="18.43 25.14 9.04 25.14 3.95 16.32 9.04 7.5 19.23 7.5 23.93 15.62 28.22 15.62 28.22 8.15 14.11 0 0 8.15 0 24.44 14.11 32.59 20.57 28.85 18.43 25.14"/><polygon class="cls-2" points="28.22 17.01 28.22 24.44 34.66 28.16 36.8 24.45 34.66 20.73 32.51 17.01 28.22 17.01"/><polygon class="cls-2" points="42.33 0 28.22 8.15 28.22 15.62 32.51 15.62 37.2 7.5 47.4 7.5 52.49 16.32 47.4 25.14 38.01 25.14 35.87 28.85 42.33 32.59 56.44 24.44 56.44 8.15 42.33 0"/><polygon class="cls-2" points="38.01 23.75 46.59 23.75 50.88 16.32 46.59 8.88 38.01 8.88 33.72 16.32 35.86 20.04 38.01 23.75"/><polygon class="cls-3" points="28.22 24.44 21.78 28.16 23.93 31.88 32.51 31.88 34.66 28.16 28.22 24.44"/><polygon class="cls-3" points="33.72 32.58 38.41 40.71 33.31 49.53 23.13 49.53 18.03 40.71 22.72 32.58 20.57 28.85 14.11 32.59 14.11 48.88 28.22 57.02 42.33 48.88 42.33 32.59 35.87 28.85 33.72 32.58"/><polygon class="cls-3" points="19.64 40.71 23.93 48.14 32.51 48.14 36.8 40.71 32.51 33.27 23.93 33.27 19.64 40.71"/></g></g></svg>