<?xml version="1.0" encoding="utf-8"?>
<!-- Generator: Adobe Illustrator 22.0.1, SVG Export Plug-In . SVG Version: 6.00 Build 0)  -->
<svg version="1.1" id="Layer_1" xmlns="http://www.w3.org/2000/svg" xmlns:xlink="http://www.w3.org/1999/xlink" x="0px" y="0px"
	 viewBox="0 0 120 63.1" style="enable-background:new 0 0 120 63.1;" xml:space="preserve">
<style type="text/css">
	.st0{enable-background:new    ;}
	.st1{fill:#FFFFFF;}
	.st2{opacity:0.8;}
	.st3{opacity:0.4;}
	.st4{opacity:0.6;}
</style>
<title>pollen-street-logo</title>
<g id="Layer_2_1_">
	<g id="Content">
		<g class="st0">
			<path class="st1" d="M62.1,2.9h6.6c1.3,0,2.4,0.4,3.2,1.1c0.8,0.7,1.2,1.8,1.2,3.1c0,1.2-0.4,2.2-1.1,3s-1.8,1.3-3.3,1.3h-4.6
				v6.3h-2V2.9z M69.9,5c-0.4-0.2-1-0.3-1.8-0.3h-4v5.1h4c0.9,0,1.6-0.2,2.2-0.6s0.8-1.1,0.8-2C71.1,6.1,70.7,5.4,69.9,5z"/>
			<path class="st1" d="M82.7,8c1,0.9,1.4,2.3,1.4,4.1c0,1.7-0.4,3.2-1.3,4.3s-2.2,1.7-3.9,1.7c-1.5,0-2.7-0.5-3.5-1.5
				c-0.9-1-1.3-2.4-1.3-4.1c0-1.8,0.5-3.3,1.4-4.3c0.9-1.1,2.1-1.6,3.7-1.6C80.6,6.6,81.8,7.1,82.7,8z M81.6,15.2
				c0.4-0.9,0.7-1.9,0.7-3c0-1-0.2-1.8-0.5-2.5c-0.5-1-1.4-1.5-2.6-1.5c-1.1,0-1.9,0.4-2.4,1.3c-0.5,0.8-0.8,1.9-0.8,3.1
				c0,1.2,0.2,2.1,0.8,2.9c0.5,0.8,1.3,1.2,2.4,1.2C80.3,16.6,81.2,16.1,81.6,15.2z"/>
			<path class="st1" d="M85.8,2.9h1.8v14.8h-1.8V2.9z"/>
			<path class="st1" d="M89.8,2.9h1.8v14.8h-1.8V2.9z"/>
			<path class="st1" d="M100.5,7.2c0.7,0.4,1.3,0.8,1.6,1.4c0.4,0.5,0.6,1.2,0.7,1.9c0.1,0.5,0.2,1.3,0.2,2.4h-7.9
				c0,1.1,0.3,2,0.8,2.7c0.5,0.7,1.2,1,2.2,1c0.9,0,1.7-0.3,2.3-0.9c0.3-0.4,0.5-0.8,0.7-1.3h1.8c0,0.4-0.2,0.8-0.5,1.3
				c-0.3,0.5-0.6,0.9-0.9,1.2c-0.5,0.5-1.2,0.9-2,1.1c-0.4,0.1-0.9,0.2-1.5,0.2c-1.3,0-2.5-0.5-3.4-1.5s-1.4-2.4-1.4-4.1
				c0-1.7,0.5-3.2,1.4-4.2s2.2-1.6,3.7-1.6C99,6.7,99.8,6.9,100.5,7.2z M101.1,11.5c-0.1-0.8-0.2-1.4-0.5-1.9
				c-0.5-0.9-1.3-1.3-2.5-1.3c-0.8,0-1.5,0.3-2.1,0.9c-0.6,0.6-0.9,1.4-0.9,2.3H101.1z"/>
			<path class="st1" d="M104.7,6.9h1.7v1.5c0.5-0.6,1.1-1.1,1.6-1.4c0.6-0.3,1.2-0.4,1.9-0.4c1.5,0,2.6,0.5,3.1,1.6
				c0.3,0.6,0.4,1.4,0.4,2.5v6.9h-1.9v-6.8c0-0.7-0.1-1.2-0.3-1.6c-0.3-0.7-0.9-1-1.8-1c-0.4,0-0.8,0-1.1,0.1
				c-0.5,0.1-0.9,0.4-1.3,0.9c-0.3,0.4-0.5,0.7-0.6,1.1s-0.1,0.9-0.1,1.6v5.7h-1.8V6.9z"/>
		</g>
		<g class="st0">
			<path class="st1" d="M63.2,30.7c0,0.8,0.2,1.5,0.6,2.1c0.6,1,1.8,1.5,3.4,1.5c0.7,0,1.4-0.1,2-0.3c1.2-0.4,1.7-1.2,1.7-2.2
				c0-0.8-0.2-1.4-0.7-1.7c-0.5-0.3-1.3-0.6-2.3-0.9l-1.9-0.5c-1.3-0.3-2.2-0.6-2.7-1c-0.9-0.6-1.4-1.5-1.4-2.8
				c0-1.3,0.4-2.4,1.3-3.3c0.9-0.9,2.2-1.3,3.8-1.3c1.5,0,2.8,0.4,3.9,1.1c1.1,0.8,1.6,2,1.6,3.6h-1.9c-0.1-0.8-0.3-1.4-0.6-1.8
				c-0.6-0.8-1.6-1.2-3-1.2c-1.1,0-2,0.2-2.5,0.7c-0.5,0.5-0.7,1.1-0.7,1.7c0,0.7,0.3,1.3,0.9,1.6c0.4,0.2,1.3,0.5,2.6,0.8l2,0.5
				c1,0.2,1.7,0.5,2.3,0.9c0.9,0.7,1.4,1.7,1.4,3c0,1.6-0.6,2.8-1.8,3.5c-1.2,0.7-2.5,1.1-4.1,1.1c-1.8,0-3.2-0.5-4.2-1.4
				c-1-0.9-1.5-2.2-1.5-3.8H63.2z"/>
			<path class="st1" d="M75.2,21.6h1.8v3h1.7v1.5h-1.7v7.1c0,0.4,0.1,0.6,0.4,0.8c0.1,0.1,0.4,0.1,0.7,0.1c0.1,0,0.2,0,0.3,0
				c0.1,0,0.2,0,0.4,0v1.4c-0.2,0.1-0.4,0.1-0.7,0.1c-0.2,0-0.5,0-0.7,0c-0.8,0-1.4-0.2-1.7-0.7c-0.3-0.4-0.5-1-0.5-1.7v-7.2h-1.5
				v-1.5h1.5V21.6z"/>
			<path class="st1" d="M80.1,24.6h1.7v1.9c0.1-0.4,0.5-0.8,1-1.3s1.2-0.8,1.9-0.8c0,0,0.1,0,0.2,0s0.2,0,0.4,0v1.9
				c-0.1,0-0.2,0-0.3,0s-0.2,0-0.3,0c-0.9,0-1.6,0.3-2.1,0.9c-0.5,0.6-0.7,1.3-0.7,2v6.2h-1.8V24.6z"/>
			<path class="st1" d="M93,24.9c0.7,0.4,1.3,0.8,1.6,1.4c0.4,0.5,0.6,1.2,0.7,1.9c0.1,0.5,0.2,1.3,0.2,2.4h-7.9
				c0,1.1,0.3,2,0.8,2.7c0.5,0.7,1.2,1,2.2,1c0.9,0,1.7-0.3,2.3-0.9c0.3-0.4,0.5-0.8,0.7-1.3h1.8c0,0.4-0.2,0.8-0.5,1.3
				c-0.3,0.5-0.6,0.9-0.9,1.2c-0.5,0.5-1.2,0.9-2,1.1c-0.4,0.1-0.9,0.2-1.5,0.2c-1.3,0-2.5-0.5-3.4-1.5s-1.4-2.4-1.4-4.1
				c0-1.7,0.5-3.2,1.4-4.2s2.2-1.6,3.7-1.6C91.6,24.4,92.3,24.6,93,24.9z M93.7,29.2c-0.1-0.8-0.2-1.4-0.5-1.9
				c-0.5-0.9-1.3-1.3-2.5-1.3c-0.8,0-1.5,0.3-2.1,0.9c-0.6,0.6-0.9,1.4-0.9,2.3H93.7z"/>
			<path class="st1" d="M103.9,24.9c0.7,0.4,1.3,0.8,1.6,1.4c0.4,0.5,0.6,1.2,0.7,1.9c0.1,0.5,0.2,1.3,0.2,2.4h-7.9
				c0,1.1,0.3,2,0.8,2.7c0.5,0.7,1.2,1,2.2,1c0.9,0,1.7-0.3,2.3-0.9c0.3-0.4,0.5-0.8,0.7-1.3h1.8c0,0.4-0.2,0.8-0.5,1.3
				c-0.3,0.5-0.6,0.9-0.9,1.2c-0.5,0.5-1.2,0.9-2,1.1c-0.4,0.1-0.9,0.2-1.5,0.2c-1.3,0-2.5-0.5-3.4-1.5s-1.4-2.4-1.4-4.1
				c0-1.7,0.5-3.2,1.4-4.2s2.2-1.6,3.7-1.6C102.5,24.4,103.2,24.6,103.9,24.9z M104.6,29.2c-0.1-0.8-0.2-1.4-0.5-1.9
				c-0.5-0.9-1.3-1.3-2.5-1.3c-0.8,0-1.5,0.3-2.1,0.9c-0.6,0.6-0.9,1.4-0.9,2.3H104.6z"/>
			<path class="st1" d="M108.5,21.6h1.8v3h1.7v1.5h-1.7v7.1c0,0.4,0.1,0.6,0.4,0.8c0.1,0.1,0.4,0.1,0.7,0.1c0.1,0,0.2,0,0.3,0
				c0.1,0,0.2,0,0.4,0v1.4c-0.2,0.1-0.4,0.1-0.7,0.1c-0.2,0-0.5,0-0.7,0c-0.8,0-1.4-0.2-1.7-0.7c-0.3-0.4-0.5-1-0.5-1.7v-7.2H107
				v-1.5h1.5V21.6z"/>
		</g>
		<g class="st0">
			<path class="st1" d="M72.4,39.4c1,1,1.6,2.1,1.7,3.4h-2c-0.2-1-0.7-1.7-1.3-2.3c-0.7-0.6-1.6-0.8-2.7-0.8c-1.4,0-2.6,0.5-3.5,1.5
				s-1.3,2.6-1.3,4.7c0,1.7,0.4,3.2,1.2,4.2s2,1.6,3.6,1.6c1.5,0,2.6-0.6,3.3-1.7c0.4-0.6,0.7-1.4,0.9-2.4h2
				c-0.2,1.6-0.7,2.9-1.7,3.9c-1.2,1.3-2.7,1.9-4.7,1.9c-1.7,0-3.1-0.5-4.3-1.6c-1.5-1.4-2.3-3.5-2.3-6.4c0-2.2,0.6-4,1.7-5.4
				c1.2-1.5,2.9-2.3,5.1-2.3C70,37.9,71.4,38.4,72.4,39.4z"/>
			<path class="st1" d="M81.8,46.6c0.4-0.1,0.7-0.2,0.8-0.5c0.1-0.2,0.1-0.4,0.1-0.7c0-0.6-0.2-1.1-0.7-1.4
				c-0.4-0.3-1.1-0.4-1.9-0.4c-0.9,0-1.6,0.3-2,0.8c-0.2,0.3-0.4,0.7-0.4,1.3h-1.7c0-1.3,0.5-2.3,1.3-2.8c0.8-0.5,1.8-0.8,2.9-0.8
				c1.3,0,2.3,0.2,3.1,0.7c0.8,0.5,1.2,1.2,1.2,2.3v6.2c0,0.2,0,0.3,0.1,0.5c0.1,0.1,0.2,0.2,0.5,0.2c0.1,0,0.2,0,0.3,0
				c0.1,0,0.2,0,0.3,0v1.3c-0.3,0.1-0.5,0.1-0.6,0.2s-0.4,0-0.6,0c-0.6,0-1.1-0.2-1.4-0.7c-0.1-0.2-0.3-0.6-0.3-1
				c-0.4,0.5-0.9,0.9-1.6,1.3c-0.7,0.4-1.5,0.5-2.3,0.5c-1,0-1.8-0.3-2.5-0.9s-1-1.4-1-2.3c0-1,0.3-1.8,0.9-2.3
				c0.6-0.6,1.4-0.9,2.5-1L81.8,46.6z M78,51.5c0.4,0.3,0.8,0.5,1.4,0.5c0.6,0,1.3-0.1,1.9-0.4c1-0.5,1.5-1.3,1.5-2.4v-1.5
				c-0.2,0.1-0.5,0.3-0.9,0.4s-0.7,0.2-1,0.2l-1.1,0.1c-0.7,0.1-1.2,0.2-1.5,0.4c-0.6,0.3-0.8,0.8-0.8,1.5
				C77.4,50.8,77.6,51.2,78,51.5z"/>
			<path class="st1" d="M86.8,42.4h1.8v1.4c0.4-0.5,0.8-0.9,1.2-1.1c0.6-0.4,1.3-0.6,2.2-0.6c1.2,0,2.3,0.5,3.1,1.4
				c0.9,0.9,1.3,2.3,1.3,4c0,2.4-0.6,4-1.9,5.1c-0.8,0.6-1.7,1-2.7,1c-0.8,0-1.5-0.2-2.1-0.5c-0.3-0.2-0.7-0.5-1.1-1v5.5h-1.8V42.4z
				 M93.6,50.9c0.6-0.7,0.8-1.8,0.8-3.2c0-0.9-0.1-1.6-0.4-2.2c-0.5-1.2-1.3-1.8-2.6-1.8c-1.3,0-2.1,0.6-2.6,1.9
				c-0.2,0.7-0.4,1.5-0.4,2.6c0,0.8,0.1,1.5,0.4,2.1c0.5,1.1,1.3,1.7,2.6,1.7C92.4,51.9,93.1,51.6,93.6,50.9z"/>
			<path class="st1" d="M97.8,38.3h1.8v2.1h-1.8V38.3z M97.8,42.4h1.8v10.8h-1.8V42.4z"/>
			<path class="st1" d="M102.2,39.3h1.8v3h1.7v1.5H104v7.1c0,0.4,0.1,0.6,0.4,0.8c0.1,0.1,0.4,0.1,0.7,0.1c0.1,0,0.2,0,0.3,0
				c0.1,0,0.2,0,0.4,0v1.4c-0.2,0.1-0.4,0.1-0.7,0.1c-0.2,0-0.5,0-0.7,0c-0.8,0-1.4-0.2-1.7-0.7c-0.3-0.4-0.5-1-0.5-1.7v-7.2h-1.5
				v-1.5h1.5V39.3z"/>
			<path class="st1" d="M112.8,46.6c0.4-0.1,0.7-0.2,0.8-0.5c0.1-0.2,0.1-0.4,0.1-0.7c0-0.6-0.2-1.1-0.7-1.4
				c-0.4-0.3-1.1-0.4-1.9-0.4c-0.9,0-1.6,0.3-2,0.8c-0.2,0.3-0.4,0.7-0.4,1.3h-1.7c0-1.3,0.5-2.3,1.3-2.8c0.8-0.5,1.8-0.8,2.9-0.8
				c1.3,0,2.3,0.2,3.1,0.7c0.8,0.5,1.2,1.2,1.2,2.3v6.2c0,0.2,0,0.3,0.1,0.5c0.1,0.1,0.2,0.2,0.5,0.2c0.1,0,0.2,0,0.3,0
				c0.1,0,0.2,0,0.3,0v1.3c-0.3,0.1-0.5,0.1-0.6,0.2s-0.4,0-0.6,0c-0.6,0-1.1-0.2-1.4-0.7c-0.1-0.2-0.3-0.6-0.3-1
				c-0.4,0.5-0.9,0.9-1.6,1.3c-0.7,0.4-1.5,0.5-2.3,0.5c-1,0-1.8-0.3-2.5-0.9s-1-1.4-1-2.3c0-1,0.3-1.8,0.9-2.3
				c0.6-0.6,1.4-0.9,2.5-1L112.8,46.6z M109,51.5c0.4,0.3,0.8,0.5,1.4,0.5c0.6,0,1.3-0.1,1.9-0.4c1-0.5,1.5-1.3,1.5-2.4v-1.5
				c-0.2,0.1-0.5,0.3-0.9,0.4s-0.7,0.2-1,0.2l-1.1,0.1c-0.7,0.1-1.2,0.2-1.5,0.4c-0.6,0.3-0.8,0.8-0.8,1.5
				C108.4,50.8,108.6,51.2,109,51.5z"/>
			<path class="st1" d="M118,38.3h1.8v14.8H118V38.3z"/>
		</g>
		<g class="st2">
			<polygon class="st1" points="18.4,10.5 9.9,10.5 5.6,17.9 9.9,25.3 18.4,25.3 20.6,21.6 22.7,17.9 			"/>
			<polygon class="st1" points="28.2,26 28.2,18.6 23.9,18.6 21.8,22.3 19.6,26 21.8,29.7 			"/>
			<polygon class="st1" points="18.4,26.7 9,26.7 4,17.9 9,9.1 19.2,9.1 23.9,17.2 28.2,17.2 28.2,9.7 14.1,1.6 0,9.7 0,26 
				14.1,34.2 20.6,30.4 			"/>
		</g>
		<g class="st3">
			<polygon class="st1" points="28.2,18.6 28.2,26 34.7,29.7 36.8,26 34.7,22.3 32.5,18.6 			"/>
			<polygon class="st1" points="42.3,1.6 28.2,9.7 28.2,17.2 32.5,17.2 37.2,9.1 47.4,9.1 52.5,17.9 47.4,26.7 38,26.7 35.9,30.4 
				42.3,34.2 56.4,26 56.4,9.7 			"/>
			<polygon class="st1" points="38,25.3 46.6,25.3 50.9,17.9 46.6,10.5 38,10.5 33.7,17.9 35.9,21.6 			"/>
		</g>
		<g class="st4">
			<polygon class="st1" points="28.2,26 21.8,29.7 23.9,33.5 32.5,33.5 34.7,29.7 			"/>
			<polygon class="st1" points="33.7,34.2 38.4,42.3 33.3,51.1 23.1,51.1 18,42.3 22.7,34.2 20.6,30.4 14.1,34.2 14.1,50.5 
				28.2,58.6 42.3,50.5 42.3,34.2 35.9,30.4 			"/>
			<polygon class="st1" points="19.6,42.3 23.9,49.7 32.5,49.7 36.8,42.3 32.5,34.8 23.9,34.8 			"/>
		</g>
	</g>
</g>
</svg>
