<svg xmlns="http://www.w3.org/2000/svg" viewBox="0 0 59.16 39.91"><defs><style>.cls-1{fill:#e86b05;}</style></defs><title>Asset 3</title><g id="Layer_2" data-name="Layer 2"><g id="Navigation"><path class="cls-1" d="M1.43,8.71a4.32,4.32,0,0,1-1.29-.9A.37.37,0,0,1,0,7.52a.4.4,0,0,1,.11-.26.37.37,0,0,1,.26-.12.37.37,0,0,1,.27.12A3,3,0,0,0,3,8.29a2.35,2.35,0,0,0,1.43-.41A1.24,1.24,0,0,0,5,6.82,1.29,1.29,0,0,0,4.7,6,2.1,2.1,0,0,0,4,5.4,10,10,0,0,0,2.8,5a6.79,6.79,0,0,1-1.29-.51,2.34,2.34,0,0,1-.85-.74A1.93,1.93,0,0,1,.34,2.54,1.88,1.88,0,0,1,.68,1.42a2.34,2.34,0,0,1,1-.78A3.33,3.33,0,0,1,3.06.36,3.63,3.63,0,0,1,4.43.61a2.39,2.39,0,0,1,1,.7.56.56,0,0,1,.18.35.33.33,0,0,1-.12.24A.37.37,0,0,1,5.26,2a.29.29,0,0,1-.21-.09,2.36,2.36,0,0,0-.86-.62,2.76,2.76,0,0,0-1.13-.24,2.44,2.44,0,0,0-1.43.39,1.22,1.22,0,0,0-.55,1.06,1.24,1.24,0,0,0,.53,1.07,5.53,5.53,0,0,0,1.51.68,8.78,8.78,0,0,1,1.39.52,2.11,2.11,0,0,1,1.23,2,1.89,1.89,0,0,1-.36,1.11,2.33,2.33,0,0,1-1,.78A3.46,3.46,0,0,1,3,9,3.9,3.9,0,0,1,1.43,8.71Z"/><path class="cls-1" d="M10.66,2.73a2.18,2.18,0,0,1,.78.34.6.6,0,0,1,.3.47.36.36,0,0,1-.09.24.3.3,0,0,1-.23.11.36.36,0,0,1-.19-.05,1,1,0,0,1-.18-.14,1,1,0,0,0-.3-.23,2,2,0,0,0-.47-.14,3.22,3.22,0,0,0-.63-.05,2.32,2.32,0,0,0-1.21.33,2.5,2.5,0,0,0-.86.91,2.86,2.86,0,0,0,0,2.57,2.26,2.26,0,0,0,2,1.24,3.05,3.05,0,0,0,.69-.07,2.28,2.28,0,0,0,.51-.21,1.72,1.72,0,0,0,.29-.21l.17-.13a.29.29,0,0,1,.16,0,.28.28,0,0,1,.22.09.32.32,0,0,1,.09.23c0,.14-.1.28-.29.44a2.43,2.43,0,0,1-.79.4A3.6,3.6,0,0,1,9.55,9,3,3,0,0,1,8,8.59,2.87,2.87,0,0,1,6.93,7.44,3.57,3.57,0,0,1,6.55,5.8a3.36,3.36,0,0,1,.39-1.61A2.85,2.85,0,0,1,8,3,2.92,2.92,0,0,1,9.61,2.6,4.31,4.31,0,0,1,10.66,2.73Z"/><path class="cls-1" d="M16.13,2.7a.3.3,0,0,1,.19.29.36.36,0,0,1-.1.27.28.28,0,0,1-.22.1l-.24-.06a1,1,0,0,0-.33-.06,1.42,1.42,0,0,0-.88.34,2.73,2.73,0,0,0-.72.88,2.34,2.34,0,0,0-.28,1.1v3a.4.4,0,0,1-.1.26.35.35,0,0,1-.26.1.34.34,0,0,1-.26-.1.35.35,0,0,1-.1-.26V3.14a.32.32,0,0,1,.1-.25.35.35,0,0,1,.26-.11.36.36,0,0,1,.26.11.36.36,0,0,1,.1.25V4.2a2.69,2.69,0,0,1,.83-1.13A2.1,2.1,0,0,1,15.7,2.6,1,1,0,0,1,16.13,2.7Z"/><path class="cls-1" d="M22.15,7.44a2.94,2.94,0,0,1-1.09,1.15,3,3,0,0,1-4.19-1.15,3.41,3.41,0,0,1-.39-1.63,3.39,3.39,0,0,1,.39-1.63A3,3,0,0,1,18,3a3,3,0,0,1,4.19,1.16,3.28,3.28,0,0,1,.4,1.63A3.31,3.31,0,0,1,22.15,7.44Zm-.62-2.93a2.28,2.28,0,0,0-.84-.9,2.19,2.19,0,0,0-1.18-.33,2.15,2.15,0,0,0-1.17.33,2.35,2.35,0,0,0-.84.9,2.8,2.8,0,0,0-.3,1.3,2.72,2.72,0,0,0,.3,1.28,2.31,2.31,0,0,0,.84.91,2.15,2.15,0,0,0,1.17.33A2.19,2.19,0,0,0,20.69,8a2.15,2.15,0,0,0,.84-.9,2.73,2.73,0,0,0,.3-1.29A2.8,2.8,0,0,0,21.53,4.51Z"/><path class="cls-1" d="M24.41,8.78a.32.32,0,0,1-.25.1.34.34,0,0,1-.26-.1.35.35,0,0,1-.1-.26V.36A.35.35,0,0,1,23.9.1a.34.34,0,0,1,.26-.1.32.32,0,0,1,.25.1.36.36,0,0,1,.11.26V8.52A.36.36,0,0,1,24.41,8.78Z"/><path class="cls-1" d="M26.87,8.78a.32.32,0,0,1-.25.1.34.34,0,0,1-.26-.1.35.35,0,0,1-.1-.26V.36a.35.35,0,0,1,.1-.26.34.34,0,0,1,.26-.1.32.32,0,0,1,.25.1A.36.36,0,0,1,27,.36V8.52A.36.36,0,0,1,26.87,8.78Z"/><path class="cls-1" d="M36.86.1a.35.35,0,0,1,.1.26V8.52a.36.36,0,1,1-.72,0V7.68a2.65,2.65,0,0,1-.89.94A2.45,2.45,0,0,1,34,9a2.62,2.62,0,0,1-1.43-.41,2.92,2.92,0,0,1-1-1.15,3.82,3.82,0,0,1,0-3.28A2.9,2.9,0,0,1,32.6,3,2.54,2.54,0,0,1,34,2.6,2.51,2.51,0,0,1,35.33,3a2.36,2.36,0,0,1,.91.92V.36a.35.35,0,0,1,.1-.26.39.39,0,0,1,.52,0ZM35.23,8A2.15,2.15,0,0,0,36,7.1a3.06,3.06,0,0,0,.28-1.3A3,3,0,0,0,36,4.51a2.28,2.28,0,0,0-.78-.9,2,2,0,0,0-1.13-.33A2,2,0,0,0,33,3.61a2.28,2.28,0,0,0-.78.9,2.87,2.87,0,0,0-.28,1.29,2.84,2.84,0,0,0,.28,1.29A2.25,2.25,0,0,0,33,8a2,2,0,0,0,1.12.33A2,2,0,0,0,35.23,8Z"/><path class="cls-1" d="M43.81,7.44a2.94,2.94,0,0,1-1.09,1.15,3,3,0,0,1-4.19-1.15,3.41,3.41,0,0,1-.39-1.63,3.39,3.39,0,0,1,.39-1.63A3,3,0,0,1,39.62,3a3,3,0,0,1,4.19,1.16,3.28,3.28,0,0,1,.4,1.63A3.31,3.31,0,0,1,43.81,7.44Zm-.62-2.93a2.28,2.28,0,0,0-.84-.9,2.19,2.19,0,0,0-1.18-.33A2.15,2.15,0,0,0,40,3.61a2.35,2.35,0,0,0-.84.9,2.8,2.8,0,0,0-.31,1.3,2.72,2.72,0,0,0,.31,1.28A2.31,2.31,0,0,0,40,8a2.15,2.15,0,0,0,1.17.33A2.19,2.19,0,0,0,42.35,8a2.15,2.15,0,0,0,.84-.9,2.73,2.73,0,0,0,.3-1.29A2.8,2.8,0,0,0,43.19,4.51Z"/><path class="cls-1" d="M52.92,2.71A.35.35,0,0,1,53,3s0,.06,0,.15L51.14,8.65a.65.65,0,0,1-.15.18.39.39,0,0,1-.4,0,.37.37,0,0,1-.13-.17L48.89,5,47.48,8.65a.36.36,0,0,1-.14.16.27.27,0,0,1-.18.07.33.33,0,0,1-.22-.05.34.34,0,0,1-.14-.18L44.9,3.13a.4.4,0,0,1,0-.15.34.34,0,0,1,.1-.26.38.38,0,0,1,.27-.1.36.36,0,0,1,.2.06.32.32,0,0,1,.12.18l1.6,4.78,1.43-3.58a.31.31,0,0,1,.33-.23.34.34,0,0,1,.34.23l1.5,3.56,1.57-4.76a.32.32,0,0,1,.34-.24A.35.35,0,0,1,52.92,2.71Z"/><path class="cls-1" d="M58.64,3.26A2.72,2.72,0,0,1,59.16,5V8.52a.36.36,0,0,1-.11.26.35.35,0,0,1-.25.1.34.34,0,0,1-.26-.1.35.35,0,0,1-.1-.26V5a2,2,0,0,0-.39-1.27,1.46,1.46,0,0,0-1.21-.48,2.12,2.12,0,0,0-1,.24,2.21,2.21,0,0,0-.75.64,1.48,1.48,0,0,0-.28.87V8.52a.36.36,0,0,1-.11.26.32.32,0,0,1-.25.1.34.34,0,0,1-.26-.1.35.35,0,0,1-.1-.26V3.14a.32.32,0,0,1,.1-.25.35.35,0,0,1,.26-.11.38.38,0,0,1,.36.36V3.8A2.41,2.41,0,0,1,55.76,3,2.45,2.45,0,0,1,57,2.6,2,2,0,0,1,58.64,3.26Z"/><path class="cls-1" d="M29.91,39.91,13,29.84a.51.51,0,0,1-.17-.69A.5.5,0,0,1,13.5,29l16.41,9.77L46.33,29a.5.5,0,0,1,.68.17.51.51,0,0,1-.17.69Z"/><path class="cls-1" d="M29.91,29.91,13,19.84a.51.51,0,0,1-.17-.69A.5.5,0,0,1,13.5,19l16.41,9.77L46.33,19a.5.5,0,0,1,.68.17.51.51,0,0,1-.17.69Z"/></g></g></svg>